<svg width="270.526123" height="398.105133" viewBox="0 0 270.526 398.105" fill="none" xmlns="http://www.w3.org/2000/svg" xmlns:xlink="http://www.w3.org/1999/xlink">
	<desc>
			Created with Pixso.
	</desc>
	<defs>
		<linearGradient id="paint_linear_30_3568_0" x1="135.220383" y1="97.712616" x2="135.220383" y2="175.830673" gradientUnits="userSpaceOnUse">
			<stop offset="0.087302" stop-color="#EB5757"/>
			<stop offset="0.970900" stop-color="#3C53D7"/>
		</linearGradient>
		<linearGradient id="paint_linear_30_3569_0" x1="129.465881" y1="100.911423" x2="129.465881" y2="175.319595" gradientUnits="userSpaceOnUse">
			<stop offset="0.087302" stop-color="#EB5757"/>
			<stop offset="0.970900" stop-color="#3C53D7"/>
		</linearGradient>
		<linearGradient id="paint_linear_30_3574_0" x1="283.886658" y1="363.745544" x2="26.018845" y2="282.701294" gradientUnits="userSpaceOnUse">
			<stop stop-color="#000053"/>
			<stop offset="0.542500" stop-color="#23007F"/>
			<stop offset="1.000000" stop-color="#4F34D7"/>
		</linearGradient>
		<linearGradient id="paint_linear_30_3575_0" x1="137.144211" y1="289.252167" x2="137.144211" y2="437.414673" gradientUnits="userSpaceOnUse">
			<stop offset="0.087302" stop-color="#EB5757"/>
			<stop offset="0.970900" stop-color="#3C53D7"/>
		</linearGradient>
		<linearGradient id="paint_linear_30_3576_0" x1="90.268814" y1="245.467743" x2="201.139801" y2="383.866821" gradientUnits="userSpaceOnUse">
			<stop stop-color="#3C53D7"/>
			<stop offset="1.000000" stop-color="#1A1B6E"/>
		</linearGradient>
		<radialGradient id="paint_radial_30_3578_0" cx="0.000000" cy="0.000000" r="1.000000" gradientUnits="userSpaceOnUse" gradientTransform="translate(136.006 303.661) rotate(0) scale(68.7558 58.0582)">
			<stop stop-color="#2F3C9E"/>
			<stop offset="0.121100" stop-color="#253184"/>
			<stop offset="0.299500" stop-color="#192364"/>
			<stop offset="0.472200" stop-color="#11194D"/>
			<stop offset="0.635000" stop-color="#0C1340"/>
			<stop offset="0.777800" stop-color="#0A113B"/>
			<stop offset="1.000000" stop-color="#000020"/>
		</radialGradient>
		<radialGradient id="paint_radial_30_3579_0" cx="0.000000" cy="0.000000" r="1.000000" gradientUnits="userSpaceOnUse" gradientTransform="translate(137.878 301.093) rotate(0) scale(57.8878 48.8811)">
			<stop stop-color="#2F3C9E"/>
			<stop offset="0.121100" stop-color="#253184"/>
			<stop offset="0.299500" stop-color="#192364"/>
			<stop offset="0.472200" stop-color="#11194D"/>
			<stop offset="0.635000" stop-color="#0C1340"/>
			<stop offset="0.777800" stop-color="#0A113B"/>
			<stop offset="1.000000" stop-color="#000020"/>
		</radialGradient>
		<linearGradient id="paint_linear_30_3584_0" x1="138.772751" y1="295.426849" x2="138.772751" y2="348.070007" gradientUnits="userSpaceOnUse">
			<stop offset="0.087302" stop-color="#EB5757"/>
			<stop offset="0.970900" stop-color="#3C53D7"/>
		</linearGradient>
		<linearGradient id="paint_linear_30_3621_0" x1="138.859650" y1="268.523193" x2="138.859650" y2="338.148010" gradientUnits="userSpaceOnUse">
			<stop offset="0.087302" stop-color="#EB5757"/>
			<stop offset="0.970900" stop-color="#3C53D7"/>
		</linearGradient>
		<linearGradient id="paint_linear_30_3626_0" x1="138.772751" y1="275.252014" x2="138.772751" y2="327.895142" gradientUnits="userSpaceOnUse">
			<stop offset="0.087302" stop-color="#EB5757"/>
			<stop offset="0.970900" stop-color="#3C53D7"/>
		</linearGradient>
		<linearGradient id="paint_linear_30_3663_0" x1="138.859650" y1="248.174515" x2="138.859650" y2="317.799377" gradientUnits="userSpaceOnUse">
			<stop offset="0.087302" stop-color="#EB5757"/>
			<stop offset="0.970900" stop-color="#3C53D7"/>
		</linearGradient>
		<linearGradient id="paint_linear_30_3668_0" x1="138.772751" y1="254.903412" x2="138.772751" y2="307.546570" gradientUnits="userSpaceOnUse">
			<stop offset="0.087302" stop-color="#EB5757"/>
			<stop offset="0.970900" stop-color="#3C53D7"/>
		</linearGradient>
		<linearGradient id="paint_linear_30_3705_0" x1="138.859650" y1="227.825867" x2="138.859650" y2="297.450684" gradientUnits="userSpaceOnUse">
			<stop offset="0.087302" stop-color="#EB5757"/>
			<stop offset="0.970900" stop-color="#3C53D7"/>
		</linearGradient>
		<linearGradient id="paint_linear_30_3710_0" x1="138.772751" y1="234.554779" x2="138.772751" y2="287.197937" gradientUnits="userSpaceOnUse">
			<stop offset="0.087302" stop-color="#EB5757"/>
			<stop offset="0.970900" stop-color="#3C53D7"/>
		</linearGradient>
		<linearGradient id="paint_linear_30_3747_0" x1="138.772736" y1="207.651184" x2="138.772736" y2="277.276001" gradientUnits="userSpaceOnUse">
			<stop offset="0.087302" stop-color="#EB5757"/>
			<stop offset="0.970900" stop-color="#3C53D7"/>
		</linearGradient>
		<linearGradient id="paint_linear_30_3752_0" x1="138.772751" y1="214.380096" x2="138.772751" y2="267.023254" gradientUnits="userSpaceOnUse">
			<stop offset="0.087302" stop-color="#EB5757"/>
			<stop offset="0.970900" stop-color="#3C53D7"/>
		</linearGradient>
		<linearGradient id="paint_linear_30_3789_0" x1="138.772491" y1="187.302490" x2="138.772491" y2="256.927307" gradientUnits="userSpaceOnUse">
			<stop offset="0.087302" stop-color="#EB5757"/>
			<stop offset="0.970900" stop-color="#3C53D7"/>
		</linearGradient>
		<linearGradient id="paint_linear_30_3835_0" x1="133.112350" y1="19.501514" x2="145.207031" y2="243.439514" gradientUnits="userSpaceOnUse">
			<stop stop-color="#F1EBF9" stop-opacity="0.000000"/>
			<stop offset="0.252000" stop-color="#F2EEFA" stop-opacity="0.000000"/>
			<stop offset="0.298900" stop-color="#F3F0FA" stop-opacity="0.000000"/>
			<stop offset="0.487300" stop-color="#EDF9FD" stop-opacity="0.137255"/>
			<stop offset="0.574100" stop-color="#E9FFFF" stop-opacity="0.200000"/>
			<stop offset="1.000000" stop-color="#E6FFFF"/>
		</linearGradient>
	</defs>
	<path id="Vector" d="M165.948 120.644C165.948 128.47 163.689 134.557 159.692 138.036C158.476 139.079 151.004 144.297 149.614 144.993C144.401 147.08 143.879 141.862 136.581 137.688C120.247 128.296 107.041 105.339 107.041 86.5555C107.041 79.4248 102.349 78.3813 105.651 74.7289C106.519 73.8593 114.165 68.4678 115.208 67.7721C120.594 64.2937 128.24 64.6416 136.755 69.5113C152.741 78.903 165.948 101.686 165.948 120.644Z" fill="url(#paint_linear_30_3568_0)" fill-opacity="1.000000" fill-rule="nonzero"/>
	<path id="Vector" d="M158.997 125.34C158.997 144.123 145.791 151.776 129.456 142.384C113.122 132.992 99.916 110.035 99.916 91.2514C99.916 72.468 113.122 64.8155 129.456 74.2072C145.791 83.5989 158.997 106.556 158.997 125.34Z" fill="url(#paint_linear_30_3569_0)" fill-opacity="1.000000" fill-rule="nonzero"/>
	<path id="Vector" d="M147.904 140.225C137.681 146.132 121.148 136.625 110.975 118.991C100.802 101.356 100.843 82.2716 111.065 76.3643C121.288 70.4571 137.821 79.964 147.994 97.5985C158.167 115.233 158.126 134.318 147.904 140.225Z" stroke="#4D0063" stroke-opacity="1.000000" stroke-width="0.687300"/>
	<path id="Vector" d="M137.624 99.5995L137.624 93.5123L132.758 90.7296L132.758 96.295L127.893 93.5123L127.893 87.9469L123.027 85.1642L123.027 90.7296L118.162 87.9469L118.162 115.6L123.027 118.383L123.027 123.948L127.893 126.731L127.893 121.166L132.758 123.948L132.758 129.514L137.624 132.296L137.624 126.209C139.883 126.557 141.62 125.514 142.142 123.079C142.663 120.818 142.142 117.513 140.578 114.557C142.142 113.513 142.837 110.904 142.142 107.948C141.62 104.991 139.883 101.86 137.624 99.5995ZM123.201 96.295L135.191 103.252C136.581 103.947 137.624 105.861 137.624 107.426C137.624 108.991 136.581 109.513 135.191 108.817L123.201 101.86L123.201 96.295ZM135.191 119.774L123.201 112.817L123.201 107.252L135.191 114.209C136.581 114.904 137.624 116.818 137.624 118.383C137.624 119.948 136.581 120.644 135.191 119.774Z" fill="#FFFFFF" fill-opacity="1.000000" fill-rule="nonzero"/>
	<path id="Vector" d="M131.889 395.959L9.20947 325.348C3.64893 322.217 3.64893 305.521 5.90796 299.955L120.942 240.301C127.197 236.649 136.928 236.301 142.489 239.431L267.948 303.434C272.467 310.738 270.034 327.957 263.604 331.609L153.61 395.264C147.007 398.742 137.276 399.09 131.889 395.959Z" fill="url(#paint_linear_30_3574_0)" fill-opacity="1.000000" fill-rule="nonzero"/>
	<path id="Vector" d="M131.889 377.698L9.20947 307.086C3.64893 303.956 4.34399 298.39 10.7734 294.738L120.768 231.083C127.023 227.431 136.754 227.083 142.315 230.213L264.994 300.825C270.555 303.956 269.86 309.521 263.431 313.173L153.436 376.828C147.007 380.48 137.276 380.828 131.889 377.698Z" fill="url(#paint_linear_30_3575_0)" fill-opacity="1.000000" fill-rule="nonzero"/>
	<path id="Vector" d="M131.715 369.523L23.4585 307.086C17.8979 303.955 18.593 298.39 25.0225 294.738L121.115 239.257C127.371 235.605 137.102 235.257 142.663 238.388L250.92 300.825C256.48 303.955 255.785 309.521 249.356 313.173L153.262 368.654C146.833 372.306 137.102 372.654 131.715 369.523Z" fill="url(#paint_linear_30_3576_0)" fill-opacity="1.000000" fill-rule="nonzero"/>
	<g opacity="0.100000">
		<path id="Vector" d="M220.337 303.608C220.337 326.276 182.604 344.653 136.06 344.653C89.5146 344.653 51.7825 326.276 51.7825 303.608C51.7825 280.939 89.5146 262.562 136.06 262.562C182.604 262.562 220.337 280.939 220.337 303.608Z" fill="url(#paint_radial_30_3578_0)" fill-opacity="1.000000" fill-rule="evenodd"/>
	</g>
	<g opacity="0.100000">
		<path id="Vector" d="M188.016 325.522C160.387 339.087 115.381 339.087 87.7522 325.522C60.1233 311.956 60.1233 290.216 87.7522 276.65C115.381 263.084 160.387 263.084 188.016 276.65C215.645 290.216 215.645 311.956 188.016 325.522Z" fill="url(#paint_radial_30_3579_0)" fill-opacity="1.000000" fill-rule="nonzero"/>
	</g>
	<path id="Vector" d="M76.9788 273.693L200.527 274.737L200.527 291.955C200.527 301.173 194.445 310.217 182.455 317.173C158.302 331.087 119.204 331.087 95.0505 317.173C83.0605 310.217 76.9788 300.999 76.9788 291.955L76.9788 273.693Z" fill="url(#paint_linear_30_3584_0)" fill-opacity="1.000000" fill-rule="nonzero"/>
	<path id="Vector" d="M80.9753 271.606L83.0605 271.606L83.0605 304.37L80.9753 304.37L80.9753 271.606Z" fill="#4D0063" fill-opacity="1.000000" fill-rule="evenodd"/>
	<path id="Vector" d="M88.0999 271.606L90.1851 271.606L90.1851 309.347L88.0999 309.347L88.0999 271.606Z" fill="#4D0063" fill-opacity="1.000000" fill-rule="evenodd"/>
	<path id="Vector" d="M95.0505 271.606L97.1357 271.606L97.1357 309.347L95.0505 309.347L95.0505 271.606Z" fill="#4D0063" fill-opacity="1.000000" fill-rule="evenodd"/>
	<path id="Vector" d="M102.175 271.606L104.26 271.606L104.26 309.347L102.175 309.347L102.175 271.606Z" fill="#4D0063" fill-opacity="1.000000" fill-rule="evenodd"/>
	<path id="Vector" d="M109.3 271.606L111.385 271.606L111.385 309.347L109.3 309.347L109.3 271.606Z" fill="#4D0063" fill-opacity="1.000000" fill-rule="evenodd"/>
	<path id="Vector" d="M116.424 271.606L118.509 271.606L118.509 309.347L116.424 309.347L116.424 271.606Z" fill="#4D0063" fill-opacity="1.000000" fill-rule="evenodd"/>
	<path id="Vector" d="M123.548 271.606L125.633 271.606L125.633 309.347L123.548 309.347L123.548 271.606Z" fill="#4D0063" fill-opacity="1.000000" fill-rule="evenodd"/>
	<path id="Vector" d="M130.673 271.606L132.758 271.606L132.758 309.347L130.673 309.347L130.673 271.606Z" fill="#4D0063" fill-opacity="1.000000" fill-rule="evenodd"/>
	<path id="Vector" d="M137.797 271.606L139.882 271.606L139.882 309.347L137.797 309.347L137.797 271.606Z" fill="#4D0063" fill-opacity="1.000000" fill-rule="evenodd"/>
	<path id="Vector" d="M144.922 271.606L147.007 271.606L147.007 309.347L144.922 309.347L144.922 271.606Z" fill="#4D0063" fill-opacity="1.000000" fill-rule="evenodd"/>
	<path id="Vector" d="M151.872 271.606L153.958 271.606L153.958 309.347L151.872 309.347L151.872 271.606Z" fill="#4D0063" fill-opacity="1.000000" fill-rule="evenodd"/>
	<path id="Vector" d="M158.997 271.606L161.082 271.606L161.082 309.347L158.997 309.347L158.997 271.606Z" fill="#4D0063" fill-opacity="1.000000" fill-rule="evenodd"/>
	<path id="Vector" d="M166.121 271.606L168.207 271.606L168.207 309.347L166.121 309.347L166.121 271.606Z" fill="#4D0063" fill-opacity="1.000000" fill-rule="evenodd"/>
	<path id="Vector" d="M173.246 271.606L175.331 271.606L175.331 309.347L173.246 309.347L173.246 271.606Z" fill="#4D0063" fill-opacity="1.000000" fill-rule="evenodd"/>
	<path id="Vector" d="M180.37 271.606L182.455 271.606L182.455 309.347L180.37 309.347L180.37 271.606Z" fill="#4D0063" fill-opacity="1.000000" fill-rule="evenodd"/>
	<path id="Vector" d="M187.494 271.606L189.58 271.606L189.58 309.347L187.494 309.347L187.494 271.606Z" fill="#4D0063" fill-opacity="1.000000" fill-rule="evenodd"/>
	<path id="Vector" d="M194.619 271.606L196.704 271.606L196.704 303.597L194.619 303.597L194.619 271.606Z" fill="#4D0063" fill-opacity="1.000000" fill-rule="evenodd"/>
	<path id="Vector" d="M200.701 275.433C200.701 295.124 173.005 311.086 138.84 311.086C104.675 311.086 76.9788 295.124 76.9788 275.433C76.9788 255.742 104.675 239.779 138.84 239.779C173.005 239.779 200.701 255.742 200.701 275.433Z" fill="url(#paint_linear_30_3621_0)" fill-opacity="1.000000" fill-rule="evenodd"/>
	<path id="Vector" d="M138.84 304.825C108.993 304.825 84.7981 290.887 84.7981 273.693C84.7981 256.5 108.993 242.562 138.84 242.562C168.686 242.562 192.881 256.5 192.881 273.693C192.881 290.887 168.686 304.825 138.84 304.825Z" stroke="#4D0063" stroke-opacity="1.000000" stroke-width="1.186500"/>
	<path id="Vector" d="M132.237 254.388L124.417 249.866L117.292 254.04L124.417 258.215L117.292 262.389L110.168 258.215L103.044 262.389L110.168 266.563L103.044 270.737L138.84 291.433L145.964 287.259L153.089 291.433L160.213 287.259L153.089 283.085L160.213 278.911L167.338 283.085L174.462 278.911L166.643 274.389C168.901 271.78 168.554 268.65 166.121 266.215C163.515 263.78 158.997 262.041 153.958 262.041C153.784 259.084 151.003 256.475 146.659 254.91C142.141 253.171 136.755 252.997 132.237 254.388ZM117.292 270.563L135.191 260.302C137.102 259.084 140.404 259.084 142.315 260.302C144.227 261.519 144.227 263.258 142.315 264.476L124.417 274.737L117.292 270.563ZM156.564 272.65L138.666 282.911L131.542 278.737L149.439 268.476C151.351 267.258 154.653 267.258 156.564 268.476C158.649 269.519 158.649 271.432 156.564 272.65Z" fill="#FFFFFF" fill-opacity="1.000000" fill-rule="nonzero"/>
	<path id="Vector" d="M76.9788 253.519L200.527 254.562L200.527 271.78C200.527 280.998 194.445 290.042 182.455 296.999C158.302 310.912 119.204 310.912 95.0505 296.999C83.0605 290.042 76.9788 280.824 76.9788 271.78L76.9788 253.519Z" fill="url(#paint_linear_30_3626_0)" fill-opacity="1.000000" fill-rule="nonzero"/>
	<path id="Vector" d="M80.9753 251.258L83.0605 251.258L83.0605 304.37L80.9753 304.37L80.9753 251.258Z" fill="#4D0063" fill-opacity="1.000000" fill-rule="evenodd"/>
	<path id="Vector" d="M88.0999 251.258L90.1851 251.258L90.1851 312.322L88.0999 312.322L88.0999 251.258Z" fill="#4D0063" fill-opacity="1.000000" fill-rule="evenodd"/>
	<path id="Vector" d="M95.0505 251.258L97.1357 251.258L97.1357 317.167L95.0505 317.167L95.0505 251.258Z" fill="#4D0063" fill-opacity="1.000000" fill-rule="evenodd"/>
	<path id="Vector" d="M102.175 251.258L104.26 251.258L104.26 320.778L102.175 320.778L102.175 251.258Z" fill="#4D0063" fill-opacity="1.000000" fill-rule="evenodd"/>
	<path id="Vector" d="M109.3 251.258L111.385 251.258L111.385 323.289L109.3 323.289L109.3 251.258Z" fill="#4D0063" fill-opacity="1.000000" fill-rule="evenodd"/>
	<path id="Vector" d="M116.424 251.258L118.509 251.258L118.509 325.183L116.424 325.183L116.424 251.258Z" fill="#4D0063" fill-opacity="1.000000" fill-rule="evenodd"/>
	<path id="Vector" d="M123.548 251.258L125.633 251.258L125.633 326.46L123.548 326.46L123.548 251.258Z" fill="#4D0063" fill-opacity="1.000000" fill-rule="evenodd"/>
	<path id="Vector" d="M130.673 251.258L132.758 251.258L132.758 327.609L130.673 327.609L130.673 251.258Z" fill="#4D0063" fill-opacity="1.000000" fill-rule="evenodd"/>
	<path id="Vector" d="M137.797 251.258L139.882 251.258L139.882 327.609L137.797 327.609L137.797 251.258Z" fill="#4D0063" fill-opacity="1.000000" fill-rule="evenodd"/>
	<path id="Vector" d="M144.922 251.258L147.007 251.258L147.007 327.609L144.922 327.609L144.922 251.258Z" fill="#4D0063" fill-opacity="1.000000" fill-rule="evenodd"/>
	<path id="Vector" d="M151.872 251.258L153.958 251.258L153.958 326.393L151.872 326.393L151.872 251.258Z" fill="#4D0063" fill-opacity="1.000000" fill-rule="evenodd"/>
	<path id="Vector" d="M158.997 251.258L161.082 251.258L161.082 325.2L158.997 325.2L158.997 251.258Z" fill="#4D0063" fill-opacity="1.000000" fill-rule="evenodd"/>
	<path id="Vector" d="M166.121 251.258L168.207 251.258L168.207 323.263L166.121 323.263L166.121 251.258Z" fill="#4D0063" fill-opacity="1.000000" fill-rule="evenodd"/>
	<path id="Vector" d="M173.246 251.258L175.331 251.258L175.331 320.879L173.246 320.879L173.246 251.258Z" fill="#4D0063" fill-opacity="1.000000" fill-rule="evenodd"/>
	<path id="Vector" d="M180.37 251.258L182.455 251.258L182.455 317.253L180.37 317.253L180.37 251.258Z" fill="#4D0063" fill-opacity="1.000000" fill-rule="evenodd"/>
	<path id="Vector" d="M187.494 251.258L189.58 251.258L189.58 312.484L187.494 312.484L187.494 251.258Z" fill="#4D0063" fill-opacity="1.000000" fill-rule="evenodd"/>
	<path id="Vector" d="M194.619 251.258L196.704 251.258L196.704 304.438L194.619 304.438L194.619 251.258Z" fill="#4D0063" fill-opacity="1.000000" fill-rule="evenodd"/>
	<path id="Vector" d="M200.701 255.084C200.701 274.775 173.005 290.738 138.84 290.738C104.675 290.738 76.9788 274.775 76.9788 255.084C76.9788 235.393 104.675 219.43 138.84 219.43C173.005 219.43 200.701 235.393 200.701 255.084Z" fill="url(#paint_linear_30_3663_0)" fill-opacity="1.000000" fill-rule="evenodd"/>
	<path id="Vector" d="M138.84 284.65C108.993 284.65 84.7981 270.712 84.7981 253.519C84.7981 236.325 108.993 222.387 138.84 222.387C168.686 222.387 192.881 236.325 192.881 253.519C192.881 270.712 168.686 284.65 138.84 284.65Z" stroke="#4D0063" stroke-opacity="1.000000" stroke-width="1.186500"/>
	<path id="Vector" d="M132.237 234.04L124.417 229.518L117.292 233.692L124.417 237.866L117.292 242.04L110.168 237.866L103.044 242.04L110.168 246.214L103.044 250.388L138.84 271.085L145.964 266.91L153.089 271.085L160.213 266.91L153.089 262.736L160.213 258.562L167.338 262.736L174.462 258.562L166.643 254.04C168.901 251.432 168.554 248.301 166.121 245.866C163.515 243.431 158.997 241.692 153.958 241.692C153.784 238.735 151.003 236.127 146.659 234.561C142.141 232.996 136.755 232.822 132.237 234.04ZM117.292 250.214L135.191 239.953C137.102 238.735 140.404 238.735 142.315 239.953C144.227 241.17 144.227 242.91 142.315 244.127L124.417 254.388L117.292 250.214ZM156.564 252.301L138.666 262.562L131.542 258.388L149.439 248.127C151.351 246.91 154.653 246.91 156.564 248.127C158.649 249.345 158.649 251.084 156.564 252.301Z" fill="#FFFFFF" fill-opacity="1.000000" fill-rule="nonzero"/>
	<path id="Vector" d="M76.9788 233.17L200.527 234.214L200.527 251.432C200.527 260.649 194.445 269.693 182.455 276.65C158.302 290.564 119.204 290.564 95.0505 276.65C83.0605 269.693 76.9788 260.475 76.9788 251.432L76.9788 233.17Z" fill="url(#paint_linear_30_3668_0)" fill-opacity="1.000000" fill-rule="nonzero"/>
	<path id="Vector" d="M80.9753 230.909L83.0605 230.909L83.0605 288.998L80.9753 288.998L80.9753 230.909Z" fill="#4D0063" fill-opacity="1.000000" fill-rule="evenodd"/>
	<path id="Vector" d="M88.0999 230.909L90.1851 230.909L90.1851 288.998L88.0999 288.998L88.0999 230.909Z" fill="#4D0063" fill-opacity="1.000000" fill-rule="evenodd"/>
	<path id="Vector" d="M95.0505 230.909L97.1357 230.909L97.1357 288.998L95.0505 288.998L95.0505 230.909Z" fill="#4D0063" fill-opacity="1.000000" fill-rule="evenodd"/>
	<path id="Vector" d="M102.175 230.909L104.26 230.909L104.26 288.998L102.175 288.998L102.175 230.909Z" fill="#4D0063" fill-opacity="1.000000" fill-rule="evenodd"/>
	<path id="Vector" d="M109.3 230.909L111.385 230.909L111.385 288.998L109.3 288.998L109.3 230.909Z" fill="#4D0063" fill-opacity="1.000000" fill-rule="evenodd"/>
	<path id="Vector" d="M116.424 230.909L118.509 230.909L118.509 288.998L116.424 288.998L116.424 230.909Z" fill="#4D0063" fill-opacity="1.000000" fill-rule="evenodd"/>
	<path id="Vector" d="M123.548 230.909L125.633 230.909L125.633 288.998L123.548 288.998L123.548 230.909Z" fill="#4D0063" fill-opacity="1.000000" fill-rule="evenodd"/>
	<path id="Vector" d="M130.673 230.909L132.758 230.909L132.758 288.998L130.673 288.998L130.673 230.909Z" fill="#4D0063" fill-opacity="1.000000" fill-rule="evenodd"/>
	<path id="Vector" d="M137.797 230.909L139.882 230.909L139.882 288.998L137.797 288.998L137.797 230.909Z" fill="#4D0063" fill-opacity="1.000000" fill-rule="evenodd"/>
	<path id="Vector" d="M144.922 230.909L147.007 230.909L147.007 288.998L144.922 288.998L144.922 230.909Z" fill="#4D0063" fill-opacity="1.000000" fill-rule="evenodd"/>
	<path id="Vector" d="M151.872 230.909L153.958 230.909L153.958 288.998L151.872 288.998L151.872 230.909Z" fill="#4D0063" fill-opacity="1.000000" fill-rule="evenodd"/>
	<path id="Vector" d="M158.997 230.909L161.082 230.909L161.082 288.998L158.997 288.998L158.997 230.909Z" fill="#4D0063" fill-opacity="1.000000" fill-rule="evenodd"/>
	<path id="Vector" d="M166.121 230.909L168.207 230.909L168.207 288.998L166.121 288.998L166.121 230.909Z" fill="#4D0063" fill-opacity="1.000000" fill-rule="evenodd"/>
	<path id="Vector" d="M173.246 230.909L175.331 230.909L175.331 288.998L173.246 288.998L173.246 230.909Z" fill="#4D0063" fill-opacity="1.000000" fill-rule="evenodd"/>
	<path id="Vector" d="M180.37 230.909L182.455 230.909L182.455 288.998L180.37 288.998L180.37 230.909Z" fill="#4D0063" fill-opacity="1.000000" fill-rule="evenodd"/>
	<path id="Vector" d="M187.494 230.909L189.58 230.909L189.58 288.998L187.494 288.998L187.494 230.909Z" fill="#4D0063" fill-opacity="1.000000" fill-rule="evenodd"/>
	<path id="Vector" d="M194.619 230.909L196.704 230.909L196.704 288.998L194.619 288.998L194.619 230.909Z" fill="#4D0063" fill-opacity="1.000000" fill-rule="evenodd"/>
	<path id="Vector" d="M200.701 234.735C200.701 254.426 173.005 270.389 138.84 270.389C104.675 270.389 76.9788 254.426 76.9788 234.735C76.9788 215.044 104.675 199.082 138.84 199.082C173.005 199.082 200.701 215.044 200.701 234.735Z" fill="url(#paint_linear_30_3705_0)" fill-opacity="1.000000" fill-rule="evenodd"/>
	<path id="Vector" d="M100.611 255.258C79.5852 243.083 79.5852 223.257 100.611 211.082C121.637 198.908 155.869 198.908 176.895 211.082C198.094 223.257 198.094 243.083 176.895 255.258C155.869 267.432 121.637 267.432 100.611 255.258Z" stroke="#4D0063" stroke-opacity="1.000000" stroke-width="1.186500"/>
	<path id="Vector" d="M132.237 213.865L124.417 209.343L117.292 213.517L124.417 217.691L117.292 221.865L110.168 217.691L103.044 221.865L110.168 226.039L103.044 230.213L138.84 250.91L145.964 246.736L153.089 250.91L160.213 246.736L153.089 242.562L160.213 238.388L167.338 242.562L174.462 238.388L166.643 233.866C168.901 231.257 168.554 228.126 166.121 225.691C163.515 223.257 158.997 221.517 153.958 221.517C153.784 218.561 151.003 215.952 146.659 214.387C142.141 212.647 136.755 212.474 132.237 213.865ZM117.292 229.866L135.191 219.604C137.102 218.387 140.404 218.387 142.315 219.604C144.227 220.822 144.227 222.561 142.315 223.778L124.417 234.04L117.292 229.866ZM156.564 231.953L138.666 242.214L131.542 238.04L149.439 227.778C151.351 226.561 154.653 226.561 156.564 227.778C158.649 228.996 158.649 230.909 156.564 231.953Z" fill="#FFFFFF" fill-opacity="1.000000" fill-rule="nonzero"/>
	<path id="Vector" d="M76.9788 212.821L200.527 213.865L200.527 231.083C200.527 240.301 194.445 249.345 182.455 256.301C158.302 270.215 119.204 270.215 95.0505 256.301C83.0605 249.345 76.9788 240.127 76.9788 231.083L76.9788 212.821Z" fill="url(#paint_linear_30_3710_0)" fill-opacity="1.000000" fill-rule="nonzero"/>
	<path id="Vector" d="M80.9753 210.734L83.0605 210.734L83.0605 268.824L80.9753 268.824L80.9753 210.734Z" fill="#4D0063" fill-opacity="1.000000" fill-rule="evenodd"/>
	<path id="Vector" d="M88.0999 210.734L90.1851 210.734L90.1851 268.824L88.0999 268.824L88.0999 210.734Z" fill="#4D0063" fill-opacity="1.000000" fill-rule="evenodd"/>
	<path id="Vector" d="M95.0505 210.734L97.1357 210.734L97.1357 268.824L95.0505 268.824L95.0505 210.734Z" fill="#4D0063" fill-opacity="1.000000" fill-rule="evenodd"/>
	<path id="Vector" d="M102.175 210.734L104.26 210.734L104.26 268.824L102.175 268.824L102.175 210.734Z" fill="#4D0063" fill-opacity="1.000000" fill-rule="evenodd"/>
	<path id="Vector" d="M109.3 210.734L111.385 210.734L111.385 268.824L109.3 268.824L109.3 210.734Z" fill="#4D0063" fill-opacity="1.000000" fill-rule="evenodd"/>
	<path id="Vector" d="M116.424 210.734L118.509 210.734L118.509 268.824L116.424 268.824L116.424 210.734Z" fill="#4D0063" fill-opacity="1.000000" fill-rule="evenodd"/>
	<path id="Vector" d="M123.548 210.734L125.633 210.734L125.633 268.824L123.548 268.824L123.548 210.734Z" fill="#4D0063" fill-opacity="1.000000" fill-rule="evenodd"/>
	<path id="Vector" d="M130.673 210.734L132.758 210.734L132.758 268.824L130.673 268.824L130.673 210.734Z" fill="#4D0063" fill-opacity="1.000000" fill-rule="evenodd"/>
	<path id="Vector" d="M137.797 210.734L139.882 210.734L139.882 268.824L137.797 268.824L137.797 210.734Z" fill="#4D0063" fill-opacity="1.000000" fill-rule="evenodd"/>
	<path id="Vector" d="M144.922 210.734L147.007 210.734L147.007 268.824L144.922 268.824L144.922 210.734Z" fill="#4D0063" fill-opacity="1.000000" fill-rule="evenodd"/>
	<path id="Vector" d="M151.872 210.734L153.958 210.734L153.958 268.824L151.872 268.824L151.872 210.734Z" fill="#4D0063" fill-opacity="1.000000" fill-rule="evenodd"/>
	<path id="Vector" d="M158.997 210.734L161.082 210.734L161.082 268.824L158.997 268.824L158.997 210.734Z" fill="#4D0063" fill-opacity="1.000000" fill-rule="evenodd"/>
	<path id="Vector" d="M166.121 210.734L168.207 210.734L168.207 268.824L166.121 268.824L166.121 210.734Z" fill="#4D0063" fill-opacity="1.000000" fill-rule="evenodd"/>
	<path id="Vector" d="M173.246 210.734L175.331 210.734L175.331 268.824L173.246 268.824L173.246 210.734Z" fill="#4D0063" fill-opacity="1.000000" fill-rule="evenodd"/>
	<path id="Vector" d="M180.37 210.734L182.455 210.734L182.455 268.824L180.37 268.824L180.37 210.734Z" fill="#4D0063" fill-opacity="1.000000" fill-rule="evenodd"/>
	<path id="Vector" d="M187.494 210.734L189.58 210.734L189.58 268.824L187.494 268.824L187.494 210.734Z" fill="#4D0063" fill-opacity="1.000000" fill-rule="evenodd"/>
	<path id="Vector" d="M194.619 210.734L196.704 210.734L196.704 268.824L194.619 268.824L194.619 210.734Z" fill="#4D0063" fill-opacity="1.000000" fill-rule="evenodd"/>
	<path id="Vector" d="M182.455 239.779C158.302 253.693 119.204 253.693 95.0505 239.779C70.897 225.865 70.897 203.256 95.0505 189.342C119.204 175.429 158.302 175.429 182.455 189.342C206.609 203.256 206.609 225.865 182.455 239.779Z" fill="url(#paint_linear_30_3747_0)" fill-opacity="1.000000" fill-rule="nonzero"/>
	<path id="Vector" d="M138.84 243.953C108.993 243.953 84.7981 230.015 84.7981 212.821C84.7981 195.628 108.993 181.69 138.84 181.69C168.686 181.69 192.881 195.628 192.881 212.821C192.881 230.015 168.686 243.953 138.84 243.953Z" stroke="#4D0063" stroke-opacity="1.000000" stroke-width="1.186500"/>
	<path id="Vector" d="M132.237 193.516L124.417 188.994L117.292 193.168L124.417 197.342L117.292 201.517L110.168 197.342L103.044 201.517L110.168 205.691L103.044 209.865L138.84 230.561L145.964 226.387L153.089 230.561L160.213 226.387L153.089 222.213L160.213 218.039L167.338 222.213L174.462 218.039L166.643 213.517C168.901 210.908 168.554 207.778 166.121 205.343C163.515 202.908 158.997 201.169 153.958 201.169C153.784 198.212 151.003 195.603 146.659 194.038C142.141 192.299 136.755 192.299 132.237 193.516ZM117.292 209.691L135.191 199.43C137.102 198.212 140.404 198.212 142.315 199.43C144.227 200.647 144.227 202.386 142.315 203.604L124.417 213.865L117.292 209.691ZM156.564 211.778L138.666 222.039L131.542 217.865L149.439 207.604C151.351 206.386 154.653 206.386 156.564 207.604C158.649 208.647 158.649 210.56 156.564 211.778Z" fill="#FFFFFF" fill-opacity="1.000000" fill-rule="nonzero"/>
	<path id="Vector" d="M76.9788 192.647L200.527 193.69L200.527 210.908C200.527 220.126 194.445 229.17 182.455 236.127C158.302 250.04 119.204 250.04 95.0505 236.127C83.0605 229.17 76.9788 219.952 76.9788 210.908L76.9788 192.647Z" fill="url(#paint_linear_30_3752_0)" fill-opacity="1.000000" fill-rule="nonzero"/>
	<path id="Vector" d="M80.9753 190.386L83.0605 190.386L83.0605 248.475L80.9753 248.475L80.9753 190.386Z" fill="#4D0063" fill-opacity="1.000000" fill-rule="evenodd"/>
	<path id="Vector" d="M88.0996 190.386L90.1848 190.386L90.1848 248.475L88.0996 248.475L88.0996 190.386Z" fill="#4D0063" fill-opacity="1.000000" fill-rule="evenodd"/>
	<path id="Vector" d="M95.0505 190.386L97.1357 190.386L97.1357 248.475L95.0505 248.475L95.0505 190.386Z" fill="#4D0063" fill-opacity="1.000000" fill-rule="evenodd"/>
	<path id="Vector" d="M102.175 190.386L104.26 190.386L104.26 248.475L102.175 248.475L102.175 190.386Z" fill="#4D0063" fill-opacity="1.000000" fill-rule="evenodd"/>
	<path id="Vector" d="M109.299 190.386L111.384 190.386L111.384 248.475L109.299 248.475L109.299 190.386Z" fill="#4D0063" fill-opacity="1.000000" fill-rule="evenodd"/>
	<path id="Vector" d="M116.424 190.386L118.509 190.386L118.509 248.475L116.424 248.475L116.424 190.386Z" fill="#4D0063" fill-opacity="1.000000" fill-rule="evenodd"/>
	<path id="Vector" d="M123.548 190.386L125.633 190.386L125.633 248.475L123.548 248.475L123.548 190.386Z" fill="#4D0063" fill-opacity="1.000000" fill-rule="evenodd"/>
	<path id="Vector" d="M130.673 190.386L132.758 190.386L132.758 248.475L130.673 248.475L130.673 190.386Z" fill="#4D0063" fill-opacity="1.000000" fill-rule="evenodd"/>
	<path id="Vector" d="M137.797 190.386L139.882 190.386L139.882 248.475L137.797 248.475L137.797 190.386Z" fill="#4D0063" fill-opacity="1.000000" fill-rule="evenodd"/>
	<path id="Vector" d="M144.922 190.386L147.007 190.386L147.007 248.475L144.922 248.475L144.922 190.386Z" fill="#4D0063" fill-opacity="1.000000" fill-rule="evenodd"/>
	<path id="Vector" d="M151.872 190.386L153.957 190.386L153.957 248.475L151.872 248.475L151.872 190.386Z" fill="#4D0063" fill-opacity="1.000000" fill-rule="evenodd"/>
	<path id="Vector" d="M158.996 190.386L161.082 190.386L161.082 248.475L158.996 248.475L158.996 190.386Z" fill="#4D0063" fill-opacity="1.000000" fill-rule="evenodd"/>
	<path id="Vector" d="M166.121 190.386L168.207 190.386L168.207 248.475L166.121 248.475L166.121 190.386Z" fill="#4D0063" fill-opacity="1.000000" fill-rule="evenodd"/>
	<path id="Vector" d="M173.246 190.386L175.331 190.386L175.331 248.475L173.246 248.475L173.246 190.386Z" fill="#4D0063" fill-opacity="1.000000" fill-rule="evenodd"/>
	<path id="Vector" d="M180.37 190.386L182.455 190.386L182.455 248.475L180.37 248.475L180.37 190.386Z" fill="#4D0063" fill-opacity="1.000000" fill-rule="evenodd"/>
	<path id="Vector" d="M187.494 190.386L189.58 190.386L189.58 248.475L187.494 248.475L187.494 190.386Z" fill="#4D0063" fill-opacity="1.000000" fill-rule="evenodd"/>
	<path id="Vector" d="M194.619 190.386L196.704 190.386L196.704 248.475L194.619 248.475L194.619 190.386Z" fill="#4D0063" fill-opacity="1.000000" fill-rule="evenodd"/>
	<path id="Vector" d="M182.455 219.43C158.302 233.344 119.204 233.344 95.0503 219.43C70.8967 205.517 70.8967 182.907 95.0503 168.993C119.204 155.08 158.302 155.08 182.455 168.993C206.609 182.907 206.609 205.517 182.455 219.43Z" fill="url(#paint_linear_30_3789_0)" fill-opacity="1.000000" fill-rule="nonzero"/>
	<path id="Vector" d="M138.84 223.778C108.993 223.778 84.7981 209.84 84.7981 192.647C84.7981 175.453 108.993 161.515 138.84 161.515C168.686 161.515 192.881 175.453 192.881 192.647C192.881 209.84 168.686 223.778 138.84 223.778Z" stroke="#4D0063" stroke-opacity="1.000000" stroke-width="1.186500"/>
	<path id="Vector" d="M132.237 173.168L124.417 168.646L117.292 172.82L124.417 176.994L117.292 181.168L110.168 176.994L103.044 181.168L110.168 185.342L103.044 189.516L138.84 210.213L145.964 206.039L153.089 210.213L160.213 206.039L153.089 201.864L160.213 197.69L167.338 201.864L174.462 197.69L166.643 193.168C168.901 190.56 168.554 187.429 166.121 184.994C163.515 182.559 158.997 180.82 153.958 180.82C153.784 177.863 151.003 175.255 146.659 173.689C142.141 172.124 136.755 171.95 132.237 173.168ZM117.292 189.342L135.191 179.081C137.102 177.863 140.404 177.863 142.315 179.081C144.227 180.298 144.227 182.038 142.315 183.255L124.417 193.516L117.292 189.342ZM156.564 191.429L138.666 201.691L131.542 197.516L149.439 187.255C151.351 186.038 154.653 186.038 156.564 187.255C158.649 188.473 158.649 190.212 156.564 191.429Z" fill="#FFFFFF" fill-opacity="1.000000" fill-rule="nonzero"/>
	<g opacity="0.500000">
		<g opacity="0.500000">
			<path id="Vector" d="M204.524 114.904L204.177 114.904C204.003 114.904 204.003 114.731 204.003 114.731L204.003 114.383C204.003 114.209 204.177 114.209 204.177 114.209L204.524 114.209C204.698 114.209 204.698 114.383 204.698 114.383L204.698 114.731C204.698 114.731 204.698 114.904 204.524 114.904Z" fill="#FFFFFF" fill-opacity="1.000000" fill-rule="nonzero"/>
		</g>
		<g opacity="0.500000">
			<path id="Vector" d="M200.875 166.385L200.527 166.385C200.353 166.385 200.353 166.211 200.353 166.211L200.353 165.863C200.353 165.689 200.527 165.689 200.527 165.689L200.875 165.689C201.048 165.689 201.048 165.863 201.048 165.863L201.048 166.211C201.048 166.211 201.048 166.385 200.875 166.385Z" fill="#FFFFFF" fill-opacity="1.000000" fill-rule="nonzero"/>
		</g>
		<g opacity="0.500000">
			<path id="Vector" d="M177.242 155.254L176.895 155.254C176.721 155.254 176.721 155.08 176.721 155.08L176.721 154.732C176.721 154.558 176.895 154.558 176.895 154.558L177.242 154.558C177.416 154.558 177.416 154.732 177.416 154.732L177.416 154.906C177.59 155.08 177.416 155.254 177.242 155.254Z" fill="#FFFFFF" fill-opacity="1.000000" fill-rule="nonzero"/>
		</g>
		<g opacity="0.500000">
			<path id="Vector" d="M161.43 158.906L161.082 158.906C160.908 158.906 160.908 158.732 160.908 158.732L160.908 158.384C160.908 158.211 161.082 158.211 161.082 158.211L161.43 158.211C161.604 158.211 161.604 158.384 161.604 158.384L161.604 158.732C161.777 158.732 161.604 158.906 161.43 158.906Z" fill="#FFFFFF" fill-opacity="1.000000" fill-rule="nonzero"/>
		</g>
		<g opacity="0.500000">
			<path id="Vector" d="M153.263 142.558L152.915 142.384C152.741 142.384 152.741 142.21 152.741 142.036L152.915 141.688C152.915 141.514 153.089 141.514 153.263 141.514L153.61 141.688C153.784 141.688 153.784 141.862 153.784 142.036L153.61 142.384C153.61 142.558 153.437 142.558 153.263 142.558Z" fill="#FFFFFF" fill-opacity="1.000000" fill-rule="nonzero"/>
		</g>
		<g opacity="0.500000">
			<path id="Vector" d="M140.751 173.689L140.404 173.516C140.23 173.516 140.23 173.342 140.23 173.168L140.404 172.82C140.404 172.646 140.577 172.646 140.751 172.646L141.099 172.82C141.272 172.82 141.272 172.994 141.272 173.168L141.099 173.516C141.099 173.689 140.925 173.689 140.751 173.689Z" fill="#FFFFFF" fill-opacity="1.000000" fill-rule="nonzero"/>
		</g>
		<g opacity="0.500000">
			<path id="Vector" d="M121.811 128.818L121.463 128.644C121.289 128.644 121.289 128.47 121.289 128.296L121.463 127.948C121.463 127.775 121.637 127.775 121.811 127.775L122.158 127.948C122.332 127.948 122.332 128.122 122.332 128.296L122.158 128.644C121.984 128.818 121.811 128.818 121.811 128.818Z" fill="#FFFFFF" fill-opacity="1.000000" fill-rule="nonzero"/>
		</g>
		<g opacity="0.500000">
			<path id="Vector" d="M89.8376 142.906L89.4902 142.732C89.3164 142.732 89.3164 142.558 89.3164 142.384L89.4902 142.036C89.4902 141.862 89.6641 141.862 89.8376 141.862L90.1853 142.036C90.3591 142.036 90.3589 142.21 90.3589 142.384L90.1853 142.732C90.0115 142.906 90.0115 143.079 89.8376 142.906Z" fill="#FFFFFF" fill-opacity="1.000000" fill-rule="nonzero"/>
		</g>
		<g opacity="0.500000">
			<path id="Vector" d="M105.477 189.69L105.129 189.516C104.955 189.516 104.955 189.342 104.955 189.168L105.129 188.82C105.129 188.647 105.303 188.647 105.477 188.647L105.824 188.82C105.998 188.82 105.998 188.994 105.998 189.168L105.824 189.516C105.65 189.69 105.65 189.864 105.477 189.69Z" fill="#FFFFFF" fill-opacity="1.000000" fill-rule="nonzero"/>
		</g>
		<g opacity="0.500000">
			<path id="Vector" d="M111.385 157.863L111.037 157.689C110.863 157.689 110.863 157.515 110.863 157.341L111.037 156.993C111.037 156.819 111.211 156.819 111.385 156.819L111.732 156.993C111.906 156.993 111.906 157.167 111.906 157.341L111.732 157.689C111.732 157.863 111.558 157.863 111.385 157.863Z" fill="#FFFFFF" fill-opacity="1.000000" fill-rule="nonzero"/>
		</g>
		<g opacity="0.500000">
			<path id="Vector" d="M89.8376 119.252L89.4902 119.079C89.3164 119.079 89.3164 118.905 89.3164 118.731L89.4902 118.383C89.4902 118.209 89.6641 118.209 89.8376 118.209L90.1853 118.383C90.3591 118.383 90.3589 118.557 90.3589 118.731L90.1853 119.079C90.0115 119.252 90.0115 119.252 89.8376 119.252Z" fill="#FFFFFF" fill-opacity="1.000000" fill-rule="nonzero"/>
		</g>
		<g opacity="0.500000">
			<path id="Vector" d="M64.4675 150.384L64.1201 150.21C63.9463 150.21 63.9463 150.036 63.9463 149.862L64.1201 149.514C64.1201 149.341 64.2939 149.341 64.4675 149.341L64.8152 149.514C64.9888 149.514 64.989 149.688 64.989 149.862L64.8152 150.21C64.8152 150.384 64.6414 150.384 64.4675 150.384Z" fill="#FFFFFF" fill-opacity="1.000000" fill-rule="nonzero"/>
		</g>
		<g opacity="0.500000">
			<path id="Vector" d="M64.4675 126.731L64.1201 126.557C63.9463 126.557 63.9463 126.383 63.9463 126.209L64.1201 125.861C64.1201 125.687 64.2939 125.687 64.4675 125.687L64.8152 125.861C64.9888 125.861 64.989 126.035 64.989 126.209L64.8152 126.557C64.8152 126.731 64.6414 126.731 64.4675 126.731Z" fill="#FFFFFF" fill-opacity="1.000000" fill-rule="nonzero"/>
		</g>
		<g opacity="0.500000">
			<path id="Vector" d="M220.336 142.558L219.989 142.384C219.815 142.384 219.815 142.21 219.815 142.036L219.989 141.688C219.989 141.514 220.163 141.514 220.336 141.514L220.684 141.688C220.858 141.688 220.858 141.862 220.858 142.036L220.684 142.384C220.51 142.558 220.336 142.558 220.336 142.558Z" fill="#FFFFFF" fill-opacity="1.000000" fill-rule="nonzero"/>
		</g>
		<g opacity="0.500000">
			<path id="Vector" d="M222.422 126.731L222.074 126.557C221.901 126.557 221.901 126.383 221.901 126.209L222.074 125.861C222.074 125.687 222.248 125.687 222.422 125.687L222.77 125.861C222.943 125.861 222.943 126.035 222.943 126.209L222.77 126.557C222.596 126.731 222.422 126.731 222.422 126.731Z" fill="#FFFFFF" fill-opacity="1.000000" fill-rule="nonzero"/>
		</g>
		<g opacity="0.500000">
			<path id="Vector" d="M191.317 149.167L190.97 148.993C190.796 148.993 190.796 148.819 190.796 148.645L190.97 148.297C190.97 148.123 191.144 148.123 191.317 148.123L191.665 148.297C191.839 148.297 191.839 148.471 191.839 148.645L191.665 148.993C191.491 148.993 191.317 149.167 191.317 149.167Z" fill="#FFFFFF" fill-opacity="1.000000" fill-rule="nonzero"/>
		</g>
		<g opacity="0.500000">
			<path id="Vector" d="M178.285 121.513L177.938 121.34C177.764 121.34 177.764 121.166 177.764 120.992L177.938 120.644C177.938 120.47 178.111 120.47 178.285 120.47L178.633 120.644C178.806 120.644 178.806 120.818 178.806 120.992L178.633 121.34C178.459 121.513 178.285 121.513 178.285 121.513Z" fill="#FFFFFF" fill-opacity="1.000000" fill-rule="nonzero"/>
		</g>
		<g opacity="0.500000">
			<path id="Vector" d="M143.705 201.864L143.358 201.864C143.184 201.864 143.184 201.691 143.184 201.691L143.184 201.343C143.184 201.169 143.358 201.169 143.358 201.169L143.705 201.169C143.879 201.169 143.879 201.343 143.879 201.343L143.879 201.691C143.879 201.864 143.879 201.864 143.705 201.864Z" fill="#FFFFFF" fill-opacity="1.000000" fill-rule="nonzero"/>
		</g>
		<g opacity="0.500000">
			<path id="Vector" d="M183.15 176.298L182.803 176.124C182.629 176.124 182.629 175.95 182.629 175.777L182.803 175.429C182.803 175.255 182.977 175.255 183.15 175.255L183.498 175.429C183.672 175.429 183.672 175.603 183.672 175.777L183.498 176.124C183.498 176.298 183.324 176.298 183.15 176.298Z" fill="#FFFFFF" fill-opacity="1.000000" fill-rule="nonzero"/>
		</g>
		<g opacity="0.500000">
			<path id="Vector" d="M90.5322 163.602L90.1848 163.428C90.011 163.428 90.011 163.254 90.011 163.08L90.1848 162.732C90.1848 162.559 90.3586 162.559 90.5322 162.559L90.8799 162.732C91.0535 162.732 91.0537 162.906 91.0537 163.08L90.8799 163.428C90.8799 163.602 90.7061 163.602 90.5322 163.602Z" fill="#FFFFFF" fill-opacity="1.000000" fill-rule="nonzero"/>
		</g>
		<g opacity="0.500000">
			<path id="Vector" d="M158.997 192.125L158.649 191.951C158.475 191.951 158.475 191.777 158.475 191.603L158.649 191.255C158.649 191.081 158.823 191.081 158.997 191.081L159.344 191.255C159.518 191.255 159.518 191.429 159.518 191.603L159.344 191.951C159.17 192.125 158.997 192.125 158.997 192.125Z" fill="#FFFFFF" fill-opacity="1.000000" fill-rule="nonzero"/>
		</g>
		<g opacity="0.500000">
			<path id="Vector" d="M166.99 132.296L166.643 132.122C166.469 132.122 166.469 131.949 166.469 131.775L166.643 131.427C166.643 131.253 166.816 131.253 166.99 131.253L167.338 131.427C167.511 131.427 167.511 131.601 167.511 131.775L167.338 132.122C167.164 132.296 167.164 132.47 166.99 132.296Z" fill="#FFFFFF" fill-opacity="1.000000" fill-rule="nonzero"/>
		</g>
	</g>
	<g opacity="0.500000">
		<g opacity="0.500000">
			<path id="Vector" d="M159.344 29.1619L158.997 29.1619C158.823 29.1619 158.823 28.988 158.823 28.988L158.823 28.6402C158.823 28.4662 158.997 28.4662 158.997 28.4662L159.344 28.4662C159.518 28.4662 159.518 28.6402 159.518 28.6402L159.518 28.988C159.518 29.1619 159.344 29.1619 159.344 29.1619Z" fill="#FFFFFF" fill-opacity="1.000000" fill-rule="nonzero"/>
		</g>
		<g opacity="0.500000">
			<path id="Vector" d="M155.521 80.8161L155.174 80.8161C155 80.8161 155 80.6422 155 80.6422L155 80.1205C155 79.9466 155.174 79.9466 155.174 79.9466L155.521 79.9466C155.695 79.9466 155.695 80.1205 155.695 80.1205L155.695 80.4683C155.869 80.6422 155.695 80.8161 155.521 80.8161Z" fill="#FFFFFF" fill-opacity="1.000000" fill-rule="nonzero"/>
		</g>
		<g opacity="0.500000">
			<path id="Vector" d="M133.626 54.9021L133.279 54.9021C133.105 54.9021 133.105 54.7282 133.105 54.7282L133.105 54.3803C133.105 54.2064 133.279 54.2064 133.279 54.2064L133.626 54.2064C133.8 54.2064 133.8 54.3803 133.8 54.3803L133.8 54.7282L133.626 54.9021Z" fill="#FFFFFF" fill-opacity="1.000000" fill-rule="nonzero"/>
		</g>
		<g opacity="0.500000">
			<path id="Vector" d="M116.25 73.1637L115.903 73.1637C115.729 73.1637 115.729 72.9898 115.729 72.9898L115.729 72.6419C115.729 72.468 115.903 72.468 115.903 72.468L116.25 72.468C116.424 72.468 116.424 72.6419 116.424 72.6419L116.424 72.9898C116.424 73.1637 116.25 73.1637 116.25 73.1637Z" fill="#FFFFFF" fill-opacity="1.000000" fill-rule="nonzero"/>
		</g>
		<g opacity="0.500000">
			<path id="Vector" d="M101.654 40.9885L101.306 40.8145C101.133 40.8145 101.133 40.6407 101.133 40.4668L101.306 40.1189C101.306 39.945 101.48 39.945 101.654 39.945L102.001 40.1189C102.175 40.1189 102.175 40.2928 102.175 40.4668L102.001 40.8145C101.828 40.9885 101.828 41.1624 101.654 40.9885Z" fill="#FFFFFF" fill-opacity="1.000000" fill-rule="nonzero"/>
		</g>
		<g opacity="0.500000">
			<path id="Vector" d="M95.5718 88.1208L95.2244 87.9469C95.0505 87.9469 95.0505 87.7729 95.0505 87.599L95.2244 87.2511C95.2244 87.0772 95.3979 87.0772 95.5718 87.0772L95.9194 87.2511C96.093 87.2511 96.093 87.4251 96.093 87.599L95.9194 87.9469C95.7456 88.1208 95.7456 88.1208 95.5718 88.1208Z" fill="#FFFFFF" fill-opacity="1.000000" fill-rule="nonzero"/>
		</g>
		<g opacity="0.500000">
			<path id="Vector" d="M76.4573 43.2494L76.1099 43.0755C75.936 43.0755 75.936 42.9016 75.936 42.7276L76.1099 42.3798C76.1099 42.2059 76.2834 42.2059 76.4573 42.2059L76.8049 42.3798C76.9785 42.3798 76.9785 42.5537 76.9785 42.7276L76.8049 43.0755C76.6311 43.2494 76.6311 43.2494 76.4573 43.2494Z" fill="#FFFFFF" fill-opacity="1.000000" fill-rule="nonzero"/>
		</g>
		<g opacity="0.500000">
			<path id="Vector" d="M60.2971 104.121L59.9497 103.948C59.7759 103.948 59.7759 103.774 59.7759 103.6L59.9497 103.252C59.9497 103.078 60.1233 103.078 60.2971 103.078L60.6448 103.252C60.8184 103.252 60.8184 103.426 60.8184 103.6L60.6448 103.948C60.4709 104.121 60.2971 104.121 60.2971 104.121Z" fill="#FFFFFF" fill-opacity="1.000000" fill-rule="nonzero"/>
		</g>
		<g opacity="0.500000">
			<path id="Vector" d="M66.2051 72.1201L65.8577 71.9463C65.6838 71.9463 65.6838 71.7723 65.6838 71.5984L65.8577 71.2506C65.8577 71.0766 66.0315 71.0766 66.2051 71.0766L66.5527 71.2506C66.7266 71.2506 66.7266 71.4245 66.7266 71.5984L66.5527 71.9463C66.3789 72.1201 66.3789 72.2941 66.2051 72.1201Z" fill="#FFFFFF" fill-opacity="1.000000" fill-rule="nonzero"/>
		</g>
		<g opacity="0.500000">
			<path id="Vector" d="M174.983 56.8152L174.636 56.6413C174.462 56.6413 174.462 56.4673 174.462 56.2934L174.636 55.9455C174.636 55.7716 174.81 55.7716 174.983 55.7716L175.331 55.9455C175.505 55.9455 175.505 56.1195 175.505 56.2934L175.331 56.6413C175.331 56.8152 175.157 56.9891 174.983 56.8152Z" fill="#FFFFFF" fill-opacity="1.000000" fill-rule="nonzero"/>
		</g>
		<g opacity="0.500000">
			<path id="Vector" d="M189.232 88.6425L188.885 88.4687C188.711 88.4687 188.711 88.2947 188.711 88.1208L188.885 87.773C188.885 87.599 189.058 87.599 189.232 87.599L189.58 87.773C189.753 87.773 189.753 87.9469 189.753 88.1208L189.58 88.4687C189.406 88.6425 189.232 88.8165 189.232 88.6425Z" fill="#FFFFFF" fill-opacity="1.000000" fill-rule="nonzero"/>
		</g>
		<g opacity="0.500000">
			<path id="Vector" d="M222.421 85.6859L222.074 85.512C221.9 85.512 221.9 85.338 221.9 85.1642L222.074 84.8163C222.074 84.6424 222.248 84.6424 222.421 84.6424L222.769 84.8163C222.943 84.8163 222.943 84.9902 222.943 85.1642L222.769 85.512C222.769 85.6859 222.595 85.8598 222.421 85.6859Z" fill="#FFFFFF" fill-opacity="1.000000" fill-rule="nonzero"/>
		</g>
		<g opacity="0.500000">
			<path id="Vector" d="M244.49 75.9464L244.143 75.7724C243.969 75.7724 243.969 75.5985 243.969 75.4246L244.143 75.0768C244.143 74.9029 244.317 74.9029 244.49 74.9029L244.838 75.0768C245.011 75.0768 245.011 75.2507 245.011 75.4246L244.838 75.7724C244.664 75.9464 244.49 75.9464 244.49 75.9464Z" fill="#FFFFFF" fill-opacity="1.000000" fill-rule="nonzero"/>
		</g>
		<g opacity="0.500000">
			<path id="Vector" d="M98.5259 116.296L98.1785 116.296C98.0046 116.296 98.0046 116.122 98.0046 116.122L98.0046 115.774C98.0046 115.6 98.1785 115.6 98.1785 115.6L98.5259 115.6C98.6997 115.6 98.6997 115.774 98.6997 115.774L98.6997 116.122L98.5259 116.296Z" fill="#FFFFFF" fill-opacity="1.000000" fill-rule="nonzero"/>
		</g>
		<g opacity="0.500000">
			<path id="Vector" d="M137.971 90.5557L137.624 90.3817C137.45 90.3817 137.45 90.2079 137.45 90.0339L137.624 89.6861C137.624 89.5122 137.798 89.5122 137.971 89.5122L138.319 89.6861C138.492 89.6861 138.493 89.86 138.493 90.0339L138.319 90.3817C138.145 90.5557 137.971 90.7296 137.971 90.5557Z" fill="#FFFFFF" fill-opacity="1.000000" fill-rule="nonzero"/>
		</g>
		<g opacity="0.500000">
			<path id="Vector" d="M45.353 77.8595L45.0056 77.6856C44.8318 77.6856 44.8318 77.5116 44.8318 77.3377L45.0056 76.9899C45.0056 76.8159 45.1792 76.8159 45.353 76.8159L45.7007 76.9899C45.8743 76.9899 45.8743 77.1638 45.8743 77.3377L45.7007 77.6856C45.5269 77.8595 45.353 77.8595 45.353 77.8595Z" fill="#FFFFFF" fill-opacity="1.000000" fill-rule="nonzero"/>
		</g>
		<g opacity="0.500000">
			<path id="Vector" d="M113.644 106.556L113.296 106.382C113.122 106.382 113.122 106.208 113.122 106.035L113.296 105.687C113.296 105.513 113.47 105.513 113.644 105.513L113.991 105.687C114.165 105.687 114.165 105.861 114.165 106.035L113.991 106.382C113.817 106.556 113.817 106.556 113.644 106.556Z" fill="#FFFFFF" fill-opacity="1.000000" fill-rule="nonzero"/>
		</g>
		<g opacity="0.500000">
			<path id="Vector" d="M152.741 49.1627L152.394 48.9888C152.22 48.9888 152.22 48.8148 152.22 48.641L152.394 48.2931C152.394 48.1192 152.568 48.1192 152.741 48.1192L153.089 48.2931C153.262 48.2931 153.263 48.467 153.263 48.641L153.089 48.9888C152.915 49.1627 152.915 49.1627 152.741 49.1627Z" fill="#FFFFFF" fill-opacity="1.000000" fill-rule="nonzero"/>
		</g>
	</g>
	<g opacity="0.800000">
		<path id="Vector" d="M182.455 219.778C158.476 233.692 119.378 233.692 95.3982 219.778C82.887 212.474 76.8049 202.908 77.3264 193.342C62.2087 164.646 40.314 137.514 0 65.1633C65.8577 -10.4919 169.597 -27.536 269.513 52.9889C279.765 61.3371 209.042 175.081 200.527 193.342C201.049 202.908 195.14 212.647 182.455 219.778Z" fill="url(#paint_linear_30_3835_0)" fill-opacity="1.000000" fill-rule="nonzero"/>
	</g>
</svg>
