<svg width="112.224121" height="70.417725" viewBox="0 0 112.224 70.4177" fill="none" xmlns="http://www.w3.org/2000/svg" xmlns:xlink="http://www.w3.org/1999/xlink">
	<desc>
			Created with Pixso.
	</desc>
	<defs/>
	<path id="Vector" d="M20.7583 47.3904L12.0894 55.5875L12.0894 69.9177L20.7583 69.9177L20.7583 47.3904Z" fill="#C08ACF" fill-opacity="1.000000" fill-rule="nonzero"/>
	<path id="Vector" d="M29.4272 42.0239L26.5376 42.0239L20.7583 47.3904L20.7583 69.9177L29.4272 69.9177L29.4272 42.0239Z" fill="#280074" fill-opacity="1.000000" fill-rule="nonzero"/>
	<path id="Vector" d="M29.4272 42.0239L38.0962 42.0239L38.0962 69.9177L29.4272 69.9177L29.4272 42.0239Z" fill="#C08ACF" fill-opacity="1.000000" fill-rule="evenodd"/>
	<path id="Vector" d="M38.0371 42.0239L46.7061 42.0239L46.7061 69.9177L38.0371 69.9177L38.0371 42.0239Z" fill="#280074" fill-opacity="1.000000" fill-rule="evenodd"/>
	<path id="Vector" d="M55.3159 35.2422L48.1216 42.024L46.7061 42.024L46.7061 69.9178L55.3159 69.9178L55.3159 35.2422Z" fill="#C08ACF" fill-opacity="1.000000" fill-rule="nonzero"/>
	<path id="Vector" d="M63.9849 28.4014L62.5693 28.4014L55.3159 35.2422L55.3159 69.9178L63.9849 69.9178L63.9849 28.4014Z" fill="#280074" fill-opacity="1.000000" fill-rule="nonzero"/>
	<path id="Vector" d="M63.9849 28.4014L72.6538 28.4014L72.6538 69.9178L63.9849 69.9178L63.9849 28.4014Z" fill="#C08ACF" fill-opacity="1.000000" fill-rule="evenodd"/>
	<path id="Vector" d="M72.6538 28.4014L81.3228 28.4014L81.3228 69.9178L72.6538 69.9178L72.6538 28.4014Z" fill="#280074" fill-opacity="1.000000" fill-rule="evenodd"/>
	<path id="Vector" d="M89.9326 22.976L84.0942 28.4014L81.2637 28.4014L81.2637 69.9178L89.9326 69.9178L89.9326 22.976Z" fill="#C08ACF" fill-opacity="1.000000" fill-rule="nonzero"/>
	<path id="Vector" d="M98.5425 14.8378L89.9326 22.976L89.9326 69.9178L98.5425 69.9178L98.5425 14.8378Z" fill="#280074" fill-opacity="1.000000" fill-rule="nonzero"/>
	<path id="Vector" d="M103.024 10.6508L84.1533 28.4014L62.5693 28.4014L48.1211 42.0239L26.5376 42.0239L9.14062 58.4182" stroke="#4D0063" stroke-opacity="1.000000" stroke-width="1.000000"/>
	<path id="Vector" d="M93.2349 12.361L105.501 8.35083L100.547 19.3787L100.666 12.9507L93.2349 12.361Z" fill="#4D0063" fill-opacity="1.000000" fill-rule="nonzero"/>
	<path id="Vector" d="M45.5854 23.2118C45.0547 25.9835 44.1113 28.8732 43.2266 31.1731C43.7573 31.1731 44.7598 31.2321 45.2905 32.2935C45.998 33.7089 47.3545 36.7164 48.2393 38.6625L49.0059 38.6625L49.0059 30.2885C49.0059 25.3938 46.4702 23.6246 45.5854 23.2118Z" fill="#280074" fill-opacity="1.000000" fill-rule="nonzero"/>
	<path id="Vector" d="M43.2266 31.1731C43.7573 31.1731 44.7598 31.2321 45.2905 32.2935C45.998 33.7089 47.3545 36.7164 48.2393 38.6625L49.0059 38.6625L49.0059 30.2885C49.0059 25.3938 46.4702 23.6246 45.5854 23.2118C45.0547 25.9835 44.1113 28.8732 43.2266 31.1731Z" stroke="#4D0063" stroke-opacity="1.000000" stroke-width="1.000000"/>
	<path id="Vector" d="M28.8965 23.2118C29.4272 25.9835 30.3706 28.8732 31.2554 31.1731C30.7246 31.1731 29.7222 31.2321 29.1914 32.2935C28.4839 33.7089 27.1274 36.7164 26.2427 38.6625L25.4761 38.6625L25.4761 30.2885C25.417 25.3938 27.9531 23.6246 28.8965 23.2118Z" fill="#280074" fill-opacity="1.000000" fill-rule="nonzero"/>
	<path id="Vector" d="M31.2554 31.1731C30.7246 31.1731 29.7222 31.2321 29.1914 32.2935C28.4839 33.7089 27.1274 36.7164 26.2427 38.6625L25.4761 38.6625L25.4761 30.2885C25.417 25.3938 27.9531 23.6246 28.8965 23.2118C29.4272 25.9835 30.3706 28.8732 31.2554 31.1731Z" stroke="#4D0063" stroke-opacity="1.000000" stroke-width="1.000000"/>
	<path id="Vector" d="M28.8965 23.2118C29.4272 25.9835 30.3706 28.8732 31.2554 31.1731C30.7246 31.1731 29.7222 31.2321 29.1914 32.2935C28.4839 33.7089 27.1274 36.7164 26.2427 38.6625L25.4761 38.6625L25.4761 30.2885C25.417 25.3938 27.9531 23.6246 28.8965 23.2118Z" fill="#280074" fill-opacity="1.000000" fill-rule="nonzero"/>
	<path id="Vector" d="M35.5601 1.33313C33.0835 4.51758 28.3066 11.4763 28.3066 19.5555C28.3066 26.5732 33.2012 36.1267 33.2012 36.1267L37.1523 36.1267L41.0444 36.1267C41.0444 36.1267 45.9395 26.5732 45.9395 19.5555C45.9395 11.5353 41.2217 4.57654 38.6855 1.39209C37.8013 0.212646 36.5039 0.212646 35.5601 1.33313Z" fill="#FFFFFF" fill-opacity="1.000000" fill-rule="nonzero"/>
	<path id="Vector" d="M28.3066 19.5555C28.3066 26.5732 33.2012 36.1267 33.2012 36.1267L37.1523 36.1267L41.0444 36.1267C41.0444 36.1267 45.9395 26.5732 45.9395 19.5555C45.9395 11.5353 41.2217 4.57654 38.6855 1.39209C37.8013 0.212646 36.5039 0.212646 35.5601 1.33313C33.0835 4.51758 28.3066 11.4763 28.3066 19.5555Z" stroke="#4D0063" stroke-opacity="1.000000" stroke-width="1.000000"/>
	<path id="Vector" d="M41.2217 36.1267L33.2603 36.1267L33.2603 37.9548L41.2217 37.9548L41.2217 36.1267Z" fill="#280074" fill-opacity="1.000000" fill-rule="nonzero"/>
	<path id="Vector" d="M41.2217 36.1267L41.2217 37.9548L33.2603 37.9548L33.2603 36.1267L41.2217 36.1267Z" stroke="#4D0063" stroke-opacity="1.000000" stroke-width="1.000000"/>
	<path id="Vector" d="M41.2217 37.9548C41.2217 37.9548 45.2319 42.0239 43.7578 47.6853C43.7578 47.6853 42.814 44.7957 41.5166 43.5573C41.5166 43.5573 42.9321 46.4468 40.2192 50.3979C37.5063 54.3491 35.2656 56.5311 36.6812 58.3003C36.6812 58.3003 30.9019 49.5724 33.7915 43.7931C33.7915 43.7931 31.5503 47.3904 31.6685 49.8082C31.6685 49.8082 30.0171 42.7316 33.2607 38.0138L41.2217 38.0138L41.2217 37.9548Z" fill="#EB5757" fill-opacity="1.000000" fill-rule="nonzero"/>
	<path id="Vector" d="M43.7578 47.6853C43.7578 47.6853 42.814 44.7957 41.5166 43.5573C41.5166 43.5573 42.9321 46.4468 40.2192 50.3979C37.5063 54.3491 35.2656 56.5311 36.6812 58.3003C36.6812 58.3003 30.9019 49.5724 33.7915 43.7931C33.7915 43.7931 31.5503 47.3904 31.6685 49.8082C31.6685 49.8082 30.0171 42.7316 33.2607 38.0138L41.2217 38.0138L41.2217 37.9548C41.2217 37.9548 45.2319 42.0239 43.7578 47.6853Z" stroke="#4D0063" stroke-opacity="1.000000" stroke-width="1.000000"/>
	<path id="Vector" d="M37.0938 54.7029L37.0938 37.9548L33.2017 37.9548C29.958 42.7316 31.6094 49.7493 31.6094 49.7493C31.4321 47.3904 33.7324 43.7341 33.7324 43.7341C31.1963 48.8057 35.2656 56.1183 36.3862 57.8875C35.9141 57.0028 36.3271 56.0004 37.0938 54.7029Z" fill="#EB5757" fill-opacity="1.000000" fill-rule="nonzero"/>
	<path id="Vector" d="M34.5576 37.9548C34.5576 37.9548 32.9658 39.2522 33.3784 41.847C33.3784 41.847 33.6143 40.9624 34.7939 40.4316C34.7939 40.4316 34.2041 45.2084 36.0913 47.8032C36.0913 47.8032 36.209 43.911 37.8013 43.3213C39.4526 42.7316 41.1035 40.5496 40.1602 37.9548L34.5576 37.9548Z" fill="#EB7A2C" fill-opacity="1.000000" fill-rule="nonzero"/>
	<path id="Vector" d="M33.3784 41.847C33.3784 41.847 33.6143 40.9624 34.7939 40.4316C34.7939 40.4316 34.2041 45.2084 36.0913 47.8032C36.0913 47.8032 36.209 43.911 37.8013 43.3213C39.4526 42.7316 41.1035 40.5496 40.1602 37.9548L34.5576 37.9548C34.5576 37.9548 32.9658 39.2522 33.3784 41.847Z" stroke="#4D0063" stroke-opacity="1.000000" stroke-width="1.000000"/>
	<path id="Vector" d="M37.0938 37.9548L34.5576 37.9548C34.5576 37.9548 32.9658 39.2522 33.3784 41.847C33.3784 41.847 33.6143 40.9624 34.7939 40.4316C34.7939 40.4316 34.2041 45.2084 36.0913 47.8032C36.0913 47.8032 36.1499 45.1494 37.0938 43.911L37.0938 37.9548Z" fill="#EB7A2C" fill-opacity="1.000000" fill-rule="nonzero"/>
	<path id="Vector" d="M37.1523 0.507568C36.6216 0.566528 36.1499 0.80249 35.6782 1.33313C33.1426 4.5177 28.3066 11.4764 28.3066 19.5555C28.3066 26.5732 33.2603 36.1268 33.2603 36.1268L37.1523 36.1268L37.1523 0.507568Z" fill="#C3C5CA" fill-opacity="1.000000" fill-rule="nonzero"/>
	<path id="Vector" d="M37.1523 5.87402C38.686 5.87402 40.042 5.52026 41.2217 4.87146C40.3369 3.45618 39.4526 2.27673 38.7446 1.39221C37.8013 0.212646 36.563 0.212646 35.6191 1.39221C34.9116 2.27673 34.0269 3.45618 33.0835 4.93054C34.2041 5.52026 35.6191 5.87402 37.1523 5.87402Z" fill="#EB5757" fill-opacity="1.000000" fill-rule="nonzero"/>
	<path id="Vector" d="M41.2217 4.87146C40.3369 3.45618 39.4526 2.27673 38.7446 1.39221C37.8013 0.212646 36.563 0.212646 35.6191 1.39221C34.9116 2.27673 34.0269 3.45618 33.0835 4.93054C34.2041 5.52026 35.6191 5.87402 37.1523 5.87402C38.686 5.87402 40.042 5.52026 41.2217 4.87146Z" stroke="#4D0063" stroke-opacity="1.000000" stroke-width="1.000000"/>
	<path id="Vector" d="M36.9165 0.507568C36.8574 0.507568 36.8574 0.507568 36.7988 0.507568L36.7397 0.507568L36.6807 0.507568L36.6216 0.507568L36.563 0.507568L36.5039 0.507568L36.4448 0.507568L36.3857 0.507568L36.3267 0.507568L36.2681 0.507568L36.209 0.507568L36.1499 0.507568L36.0908 0.507568C36.0908 0.507568 36.0322 0.507568 36.0322 0.566528C36.0322 0.566528 35.9731 0.566528 35.9731 0.625488C35.9731 0.625488 35.9731 0.625488 35.9141 0.684448C35.9141 0.684448 35.855 0.684448 35.855 0.743408C35.855 0.743408 35.7959 0.743408 35.7959 0.80249C35.7959 0.80249 35.7373 0.80249 35.7373 0.86145C35.7373 0.86145 35.6782 0.86145 35.6782 0.92041C35.6782 0.92041 35.6191 0.92041 35.6191 0.97937L35.5601 1.03833C35.5601 1.03833 35.5601 1.03833 35.5015 1.09729L35.4424 1.15625C35.4424 1.15625 35.4424 1.15625 35.3833 1.21521L35.3242 1.27417C35.3242 1.27417 35.3242 1.27417 35.3242 1.33313C35.2651 1.39221 35.2651 1.39221 35.2065 1.45117C35.2065 1.45117 35.2065 1.45117 35.2065 1.51013C35.2065 1.56909 35.1475 1.56909 35.1475 1.62805L35.0884 1.68701C35.0884 1.74597 35.0293 1.74597 35.0293 1.80493L34.9707 1.86389C34.9707 1.86389 34.9116 1.92285 34.9116 1.98193C34.9116 1.98193 34.8525 2.04089 34.8525 2.09985C34.8525 2.15881 34.7935 2.15881 34.7935 2.21777C34.7935 2.27673 34.7344 2.27673 34.7344 2.33569L34.6758 2.39465C34.6758 2.45361 34.6167 2.45361 34.6167 2.51257L34.5576 2.57166C34.4985 2.63062 34.4985 2.68958 34.4399 2.74854C34.4399 2.74854 34.4399 2.8075 34.3809 2.8075C34.3218 2.86646 34.2627 2.92542 34.2041 3.04333C34.2041 3.04333 34.2041 3.04333 34.2041 3.10229C34.145 3.16138 34.145 3.22034 34.0859 3.2793C34.2627 3.16138 34.2041 3.16138 34.2041 3.16138C34.145 3.22034 34.145 3.2793 34.0859 3.33826L34.0269 3.39722C33.9678 3.45618 33.9678 3.51514 33.9092 3.5741L33.8501 3.63306C33.791 3.69202 33.791 3.7511 33.7319 3.81006L33.6733 3.86902C33.6143 3.92798 33.6143 3.98694 33.5552 4.0459C33.5552 4.0459 33.5552 4.10486 33.4961 4.10486C33.437 4.16382 33.437 4.22278 33.3784 4.28174C33.3784 4.28174 33.3784 4.28174 33.3784 4.34082C33.2603 4.5177 33.1426 4.69458 33.0244 4.87146C34.145 5.46118 35.5015 5.81506 36.9756 5.87402L36.9756 0.507568C36.9756 0.507568 36.9756 0.507568 36.9165 0.507568Z" fill="#EB5757" fill-opacity="1.000000" fill-rule="nonzero"/>
	<path id="Vector" d="M42.7549 18.3171C42.7549 21.4426 40.2192 23.9194 37.1528 23.9194C34.0273 23.9194 31.5503 21.3837 31.5503 18.3171C31.5503 15.1915 34.0859 12.7147 37.1528 12.7147C40.2192 12.6558 42.7549 15.1915 42.7549 18.3171Z" fill="#EB5757" fill-opacity="1.000000" fill-rule="nonzero"/>
	<path id="Vector" d="M37.1528 23.9194C34.0273 23.9194 31.5503 21.3837 31.5503 18.3171C31.5503 15.1915 34.0859 12.7147 37.1528 12.7147C40.2192 12.6558 42.7549 15.1915 42.7549 18.3171C42.7549 21.4426 40.2192 23.9194 37.1528 23.9194Z" stroke="#4D0063" stroke-opacity="1.000000" stroke-width="1.000000"/>
	<path id="Vector" d="M37.1523 12.6558C34.0269 12.6558 31.4912 15.1915 31.4912 18.2582C31.4912 21.3837 34.0269 23.8605 37.0938 23.8605L37.0938 12.6558L37.1523 12.6558Z" fill="#EB5757" fill-opacity="1.000000" fill-rule="nonzero"/>
	<path id="Vector" d="M41.2808 18.3171C41.2808 20.6171 39.3936 22.5042 37.0938 22.5042C34.7939 22.5042 32.9067 20.6171 32.9067 18.3171C32.9067 16.0172 34.7939 14.1301 37.0938 14.1301C39.4526 14.1301 41.2808 16.0172 41.2808 18.3171Z" fill="#280074" fill-opacity="1.000000" fill-rule="nonzero"/>
	<path id="Vector" d="M37.0938 22.5042C34.7939 22.5042 32.9067 20.6171 32.9067 18.3171C32.9067 16.0172 34.7939 14.1301 37.0938 14.1301C39.4526 14.1301 41.2808 16.0172 41.2808 18.3171C41.2808 20.6171 39.3936 22.5042 37.0938 22.5042Z" stroke="#4D0063" stroke-opacity="1.000000" stroke-width="1.000000"/>
	<path id="Vector" d="M37.1528 14.1301C34.853 14.1301 32.9658 16.0172 32.9658 18.3171C32.9658 20.6171 34.853 22.5042 37.1528 22.5042L37.1528 14.1301Z" fill="#280074" fill-opacity="1.000000" fill-rule="nonzero"/>
	<path id="Vector" d="M36.7988 40.0779C36.8579 40.3137 36.8579 40.6086 36.917 40.8445L37.5654 40.8445C37.6245 40.6086 37.6836 40.3137 37.6836 40.0779C37.8013 39.3702 37.9194 38.6035 37.978 37.8959C38.0962 36.4216 38.1553 35.0062 38.1553 33.532C38.1553 32.0576 38.0962 30.6423 37.978 29.168C37.9194 28.4603 37.8013 27.6937 37.6836 26.9861C37.6245 26.6912 37.5654 26.3964 37.5063 26.1014L36.917 26.1014C36.8579 26.3964 36.7988 26.6912 36.7397 26.9861C36.6221 27.6937 36.5039 28.4603 36.4448 29.168C36.3271 30.6423 36.2681 32.0576 36.2681 33.532C36.2681 35.0062 36.3271 36.4216 36.4448 37.8959C36.563 38.6625 36.6807 39.3702 36.7988 40.0779Z" fill="#280074" fill-opacity="1.000000" fill-rule="nonzero"/>
	<path id="Vector" d="M36.917 40.8445L37.5654 40.8445C37.6245 40.6086 37.6836 40.3137 37.6836 40.0779C37.8013 39.3702 37.9194 38.6035 37.978 37.8959C38.0962 36.4216 38.1553 35.0062 38.1553 33.532C38.1553 32.0576 38.0962 30.6423 37.978 29.168C37.9194 28.4603 37.8013 27.6937 37.6836 26.9861C37.6245 26.6912 37.5654 26.3964 37.5063 26.1014L36.917 26.1014C36.8579 26.3964 36.7988 26.6912 36.7397 26.9861C36.6221 27.6937 36.5039 28.4603 36.4448 29.168C36.3271 30.6423 36.2681 32.0576 36.2681 33.532C36.2681 35.0062 36.3271 36.4216 36.4448 37.8959C36.563 38.6625 36.6807 39.3702 36.7988 40.0779C36.8579 40.3137 36.8579 40.6086 36.917 40.8445Z" stroke="#4D0063" stroke-opacity="1.000000" stroke-width="1.000000"/>
	<path id="Vector" d="M37.0938 26.1014L36.917 26.1014C36.8579 26.3964 36.7988 26.6912 36.7397 26.9861C36.6221 27.6937 36.5039 28.4603 36.4448 29.168C36.3271 30.6423 36.2681 32.0576 36.2681 33.532C36.2681 35.0062 36.3271 36.4216 36.4448 37.8959C36.5039 38.6035 36.6221 39.3702 36.7397 40.0779C36.7988 40.3137 36.7988 40.6086 36.8579 40.8445L37.0347 40.8445L37.0347 26.1014L37.0938 26.1014Z" fill="#280074" fill-opacity="1.000000" fill-rule="nonzero"/>
	<path id="Vector" d="M0 69.9177L112.224 69.9177" stroke="#4D0063" stroke-opacity="1.000000" stroke-width="1.000000"/>
</svg>
