<svg width="36" height="42" viewBox="0 0 36 42" fill="none" xmlns="http://www.w3.org/2000/svg">
<g id="Group">
<path id="Vector" d="M9.14692 20.166C9.14692 13.63 14.4192 8.35769 20.9552 8.31412L22.0445 3.56466C21.6959 3.52109 21.3474 3.52109 20.9988 3.52109C11.8484 3.52109 4.39746 10.9721 4.39746 20.1224C4.39746 24.1747 5.83537 27.8784 8.27546 30.7542L11.5434 27.1812C10.0619 25.3076 9.14692 22.8675 9.14692 20.166Z" fill="url(#paint0_linear_30_3512)"/>
<path id="Vector_2" d="M28.9726 28.9242C26.8811 30.8414 24.0924 32.0178 20.9987 32.0178C17.6872 32.0178 14.6806 30.6235 12.502 28.4449L9.27759 31.9743C12.2841 34.9808 16.4236 36.8109 20.9987 36.8109C25.4432 36.8109 29.4955 35.0679 32.4584 32.1921L28.9726 28.9242Z" fill="url(#paint1_linear_30_3512)"/>
<path id="Vector_3" d="M23.5697 3.78253L22.5239 8.44484C25.0076 8.74985 27.2298 9.83918 28.9727 11.4514L32.8072 8.53199C30.3671 6.04833 27.1427 4.34898 23.5697 3.78253Z" fill="url(#paint2_linear_30_3512)"/>
<path id="Vector_4" d="M16.685 11.3207C13.3735 12.9329 11.1077 16.3316 11.1077 20.2531C11.1077 24.1747 13.3735 27.5734 16.685 29.1856" stroke="url(#paint3_linear_30_3512)" stroke-miterlimit="10"/>
<path id="Vector_5" d="M16.6851 13.5429C17.9124 13.5429 18.9073 12.548 18.9073 11.3207C18.9073 10.0934 17.9124 9.09845 16.6851 9.09845C15.4578 9.09845 14.4629 10.0934 14.4629 11.3207C14.4629 12.548 15.4578 13.5429 16.6851 13.5429Z" fill="url(#paint4_radial_30_3512)"/>
<path id="Vector_6" d="M15.6392 11.3207C15.6392 11.8871 16.1185 12.3664 16.6849 12.3664C17.2514 12.3664 17.7307 11.8871 17.7307 11.3207C17.7307 10.7542 17.2514 10.2749 16.6849 10.2749C16.0749 10.2749 15.6392 10.7542 15.6392 11.3207Z" fill="url(#paint5_linear_30_3512)"/>
<path id="Vector_7" d="M16.6851 30.8414C17.9124 30.8414 18.9073 29.8464 18.9073 28.6191C18.9073 27.3918 17.9124 26.3969 16.6851 26.3969C15.4578 26.3969 14.4629 27.3918 14.4629 28.6191C14.4629 29.8464 15.4578 30.8414 16.6851 30.8414Z" fill="url(#paint6_radial_30_3512)"/>
<path id="Vector_8" d="M15.6392 28.6191C15.6392 29.1856 16.1185 29.6649 16.6849 29.6649C17.2514 29.6649 17.7307 29.1856 17.7307 28.6191C17.7307 28.0527 17.2514 27.5734 16.6849 27.5734C16.0749 27.5734 15.6392 28.0527 15.6392 28.6191Z" fill="url(#paint7_linear_30_3512)"/>
<path id="Vector_9" d="M32.9378 34.7193C29.6698 37.4209 25.5304 38.9895 20.9988 38.9895" stroke="url(#paint8_linear_30_3512)" stroke-miterlimit="10"/>
<path id="Vector_10" d="M7.40405 7.26838C10.8027 3.65182 15.6393 1.4296 20.9988 1.4296C25.5304 1.4296 29.7134 3.0418 32.9378 5.69975" stroke="url(#paint9_linear_30_3512)" stroke-miterlimit="10"/>
<path id="Vector_11" d="M2.21875 20.2096C2.21875 16.3751 3.39522 12.8022 5.356 9.79562" stroke="url(#paint10_linear_30_3512)" stroke-miterlimit="10"/>
<path id="Vector_12" d="M17.6871 38.7281C9.84393 37.3337 3.70014 31.1028 2.43652 23.2161" stroke="url(#paint11_linear_30_3512)" stroke-miterlimit="10"/>
<path id="Vector_13" d="M32.9378 37.0287C34.1651 37.0287 35.16 36.0338 35.16 34.8065C35.16 33.5792 34.1651 32.5843 32.9378 32.5843C31.7105 32.5843 30.7156 33.5792 30.7156 34.8065C30.7156 36.0338 31.7105 37.0287 32.9378 37.0287Z" fill="url(#paint12_radial_30_3512)"/>
<path id="Vector_14" d="M32.9378 35.8522C33.5154 35.8522 33.9836 35.384 33.9836 34.8065C33.9836 34.2289 33.5154 33.7607 32.9378 33.7607C32.3603 33.7607 31.8921 34.2289 31.8921 34.8065C31.8921 35.384 32.3603 35.8522 32.9378 35.8522Z" fill="url(#paint13_linear_30_3512)"/>
<path id="Vector_15" d="M21.5215 41.4296C22.7488 41.4296 23.7438 40.4347 23.7438 39.2074C23.7438 37.9801 22.7488 36.9851 21.5215 36.9851C20.2942 36.9851 19.2993 37.9801 19.2993 39.2074C19.2993 40.4347 20.2942 41.4296 21.5215 41.4296Z" fill="url(#paint14_radial_30_3512)"/>
<path id="Vector_16" d="M21.5216 40.2531C22.0991 40.2531 22.5673 39.7849 22.5673 39.2074C22.5673 38.6298 22.0991 38.1616 21.5216 38.1616C20.944 38.1616 20.4758 38.6298 20.4758 39.2074C20.4758 39.7849 20.944 40.2531 21.5216 40.2531Z" fill="url(#paint15_linear_30_3512)"/>
<path id="Vector_17" d="M17.3821 40.9503C18.6094 40.9503 19.6044 39.9553 19.6044 38.7281C19.6044 37.5008 18.6094 36.5058 17.3821 36.5058C16.1548 36.5058 15.1599 37.5008 15.1599 38.7281C15.1599 39.9553 16.1548 40.9503 17.3821 40.9503Z" fill="url(#paint16_radial_30_3512)"/>
<path id="Vector_18" d="M17.3822 39.7738C17.9597 39.7738 18.4279 39.3056 18.4279 38.728C18.4279 38.1505 17.9597 37.6823 17.3822 37.6823C16.8046 37.6823 16.3364 38.1505 16.3364 38.728C16.3364 39.3056 16.8046 39.7738 17.3822 39.7738Z" fill="url(#paint17_linear_30_3512)"/>
<path id="Vector_19" d="M2.61089 26.0483C3.83819 26.0483 4.83312 25.0534 4.83312 23.8261C4.83312 22.5988 3.83819 21.6039 2.61089 21.6039C1.38359 21.6039 0.388672 22.5988 0.388672 23.8261C0.388672 25.0534 1.38359 26.0483 2.61089 26.0483Z" fill="url(#paint18_radial_30_3512)"/>
<path id="Vector_20" d="M2.61094 24.8719C3.18849 24.8719 3.65669 24.4037 3.65669 23.8261C3.65669 23.2486 3.18849 22.7804 2.61094 22.7804C2.03338 22.7804 1.56519 23.2486 1.56519 23.8261C1.56519 24.4037 2.03338 24.8719 2.61094 24.8719Z" fill="url(#paint19_linear_30_3512)"/>
<path id="Vector_21" d="M2.2188 21.9089C3.4461 21.9089 4.44103 20.914 4.44103 19.6867C4.44103 18.4594 3.4461 17.4644 2.2188 17.4644C0.991505 17.4644 -0.00341797 18.4594 -0.00341797 19.6867C-0.00341797 20.914 0.991505 21.9089 2.2188 21.9089Z" fill="url(#paint20_radial_30_3512)"/>
<path id="Vector_22" d="M2.21885 20.7324C2.7964 20.7324 3.2646 20.2642 3.2646 19.6867C3.2646 19.1091 2.7964 18.6409 2.21885 18.6409C1.64129 18.6409 1.1731 19.1091 1.1731 19.6867C1.1731 20.2642 1.64129 20.7324 2.21885 20.7324Z" fill="url(#paint21_linear_30_3512)"/>
<path id="Vector_23" d="M5.18169 12.4971C6.40899 12.4971 7.40392 11.5022 7.40392 10.2749C7.40392 9.04763 6.40899 8.0527 5.18169 8.0527C3.9544 8.0527 2.95947 9.04763 2.95947 10.2749C2.95947 11.5022 3.9544 12.4971 5.18169 12.4971Z" fill="url(#paint22_radial_30_3512)"/>
<path id="Vector_24" d="M5.18174 11.3207C5.75929 11.3207 6.22749 10.8525 6.22749 10.2749C6.22749 9.69736 5.75929 9.22916 5.18174 9.22916C4.60419 9.22916 4.13599 9.69736 4.13599 10.2749C4.13599 10.8525 4.60419 11.3207 5.18174 11.3207Z" fill="url(#paint23_linear_30_3512)"/>
<path id="Vector_25" d="M5.53027 7.00695C5.53027 8.22699 6.53245 9.22917 7.7525 9.22917C8.97254 9.22917 9.97472 8.22699 9.97472 7.00695C9.97472 5.78691 8.97254 4.78473 7.7525 4.78473C6.48888 4.8283 5.53027 5.78691 5.53027 7.00695Z" fill="url(#paint24_radial_30_3512)"/>
<path id="Vector_26" d="M6.66333 7.00693C6.66333 7.57338 7.14263 8.05269 7.70908 8.05269C8.27553 8.05269 8.75483 7.57338 8.75483 7.00693C8.75483 6.44048 8.27553 5.96118 7.70908 5.96118C7.14263 6.00475 6.66333 6.44048 6.66333 7.00693Z" fill="url(#paint25_linear_30_3512)"/>
<path id="Vector_27" d="M33.1121 8.00911C34.3394 8.00911 35.3343 7.01419 35.3343 5.78689C35.3343 4.55959 34.3394 3.56467 33.1121 3.56467C31.8848 3.56467 30.8899 4.55959 30.8899 5.78689C30.8899 7.01419 31.8848 8.00911 33.1121 8.00911Z" fill="url(#paint26_radial_30_3512)"/>
<path id="Vector_28" d="M33.1122 6.83265C33.6897 6.83265 34.1579 6.36445 34.1579 5.7869C34.1579 5.20935 33.6897 4.74115 33.1122 4.74115C32.5346 4.74115 32.0664 5.20935 32.0664 5.7869C32.0664 6.36445 32.5346 6.83265 33.1122 6.83265Z" fill="url(#paint27_linear_30_3512)"/>
</g>
<defs>
<linearGradient id="paint0_linear_30_3512" x1="13.2238" y1="14.4988" x2="13.2238" y2="41.0894" gradientUnits="userSpaceOnUse">
<stop offset="0.0873016" stop-color="#EB5757"/>
<stop offset="0.9709" stop-color="#3C53D7"/>
</linearGradient>
<linearGradient id="paint1_linear_30_3512" x1="20.8717" y1="31.8172" x2="20.8717" y2="39.9858" gradientUnits="userSpaceOnUse">
<stop offset="0.0873016" stop-color="#EB5757"/>
<stop offset="0.9709" stop-color="#3C53D7"/>
</linearGradient>
<linearGradient id="paint2_linear_30_3512" x1="27.6672" y1="6.87387" x2="27.6672" y2="14.3618" gradientUnits="userSpaceOnUse">
<stop offset="0.0873016" stop-color="#EB5757"/>
<stop offset="0.9709" stop-color="#3C53D7"/>
</linearGradient>
<linearGradient id="paint3_linear_30_3512" x1="13.8972" y1="18.5221" x2="13.8972" y2="35.9655" gradientUnits="userSpaceOnUse">
<stop offset="0.0873016" stop-color="#EB5757"/>
<stop offset="0.9709" stop-color="#3C53D7"/>
</linearGradient>
<radialGradient id="paint4_radial_30_3512" cx="0" cy="0" r="1" gradientUnits="userSpaceOnUse" gradientTransform="translate(16.7049 11.3198) scale(2.01651)">
<stop stop-color="#7F00FE"/>
<stop offset="1" stop-color="#450528" stop-opacity="0"/>
</radialGradient>
<linearGradient id="paint5_linear_30_3512" x1="16.6852" y1="11.118" x2="16.6852" y2="13.1602" gradientUnits="userSpaceOnUse">
<stop offset="0.0873016" stop-color="#EB5757"/>
<stop offset="0.9709" stop-color="#3C53D7"/>
</linearGradient>
<radialGradient id="paint6_radial_30_3512" cx="0" cy="0" r="1" gradientUnits="userSpaceOnUse" gradientTransform="translate(16.7049 28.6183) scale(2.01651)">
<stop stop-color="#7F00FE"/>
<stop offset="1" stop-color="#450528" stop-opacity="0"/>
</radialGradient>
<linearGradient id="paint7_linear_30_3512" x1="16.6852" y1="28.4165" x2="16.6852" y2="30.4586" gradientUnits="userSpaceOnUse">
<stop offset="0.0873016" stop-color="#EB5757"/>
<stop offset="0.9709" stop-color="#3C53D7"/>
</linearGradient>
<linearGradient id="paint8_linear_30_3512" x1="26.9702" y1="36.4406" x2="26.9702" y2="40.61" gradientUnits="userSpaceOnUse">
<stop offset="0.0873016" stop-color="#EB5757"/>
<stop offset="0.9709" stop-color="#3C53D7"/>
</linearGradient>
<linearGradient id="paint9_linear_30_3512" x1="20.175" y1="3.78323" x2="20.175" y2="9.48425" gradientUnits="userSpaceOnUse">
<stop offset="0.0873016" stop-color="#EB5757"/>
<stop offset="0.9709" stop-color="#3C53D7"/>
</linearGradient>
<linearGradient id="paint10_linear_30_3512" x1="3.78788" y1="13.9935" x2="3.78788" y2="24.1618" gradientUnits="userSpaceOnUse">
<stop offset="0.0873016" stop-color="#EB5757"/>
<stop offset="0.9709" stop-color="#3C53D7"/>
</linearGradient>
<linearGradient id="paint11_linear_30_3512" x1="10.0642" y1="29.469" x2="10.0642" y2="44.615" gradientUnits="userSpaceOnUse">
<stop offset="0.0873016" stop-color="#EB5757"/>
<stop offset="0.9709" stop-color="#3C53D7"/>
</linearGradient>
<radialGradient id="paint12_radial_30_3512" cx="0" cy="0" r="1" gradientUnits="userSpaceOnUse" gradientTransform="translate(32.9576 34.8057) scale(2.01651)">
<stop stop-color="#7F00FE"/>
<stop offset="1" stop-color="#450528" stop-opacity="0"/>
</radialGradient>
<linearGradient id="paint13_linear_30_3512" x1="32.9382" y1="34.6038" x2="32.9382" y2="36.646" gradientUnits="userSpaceOnUse">
<stop offset="0.0873016" stop-color="#EB5757"/>
<stop offset="0.9709" stop-color="#3C53D7"/>
</linearGradient>
<radialGradient id="paint14_radial_30_3512" cx="0" cy="0" r="1" gradientUnits="userSpaceOnUse" gradientTransform="translate(21.5414 39.2065) scale(2.01651)">
<stop stop-color="#7F00FE"/>
<stop offset="1" stop-color="#450528" stop-opacity="0"/>
</radialGradient>
<linearGradient id="paint15_linear_30_3512" x1="21.5219" y1="39.0047" x2="21.5219" y2="41.0469" gradientUnits="userSpaceOnUse">
<stop offset="0.0873016" stop-color="#EB5757"/>
<stop offset="0.9709" stop-color="#3C53D7"/>
</linearGradient>
<radialGradient id="paint16_radial_30_3512" cx="0" cy="0" r="1" gradientUnits="userSpaceOnUse" gradientTransform="translate(17.402 38.7272) scale(2.01651)">
<stop stop-color="#7F00FE"/>
<stop offset="1" stop-color="#450528" stop-opacity="0"/>
</radialGradient>
<linearGradient id="paint17_linear_30_3512" x1="17.3825" y1="38.5254" x2="17.3825" y2="40.5675" gradientUnits="userSpaceOnUse">
<stop offset="0.0873016" stop-color="#EB5757"/>
<stop offset="0.9709" stop-color="#3C53D7"/>
</linearGradient>
<radialGradient id="paint18_radial_30_3512" cx="0" cy="0" r="1" gradientUnits="userSpaceOnUse" gradientTransform="translate(2.63072 23.8253) scale(2.01651)">
<stop stop-color="#7F00FE"/>
<stop offset="1" stop-color="#450528" stop-opacity="0"/>
</radialGradient>
<linearGradient id="paint19_linear_30_3512" x1="2.61127" y1="23.6235" x2="2.61127" y2="25.6656" gradientUnits="userSpaceOnUse">
<stop offset="0.0873016" stop-color="#EB5757"/>
<stop offset="0.9709" stop-color="#3C53D7"/>
</linearGradient>
<radialGradient id="paint20_radial_30_3512" cx="0" cy="0" r="1" gradientUnits="userSpaceOnUse" gradientTransform="translate(2.23863 19.6858) scale(2.01651)">
<stop stop-color="#7F00FE"/>
<stop offset="1" stop-color="#450528" stop-opacity="0"/>
</radialGradient>
<linearGradient id="paint21_linear_30_3512" x1="2.21918" y1="19.484" x2="2.21918" y2="21.5262" gradientUnits="userSpaceOnUse">
<stop offset="0.0873016" stop-color="#EB5757"/>
<stop offset="0.9709" stop-color="#3C53D7"/>
</linearGradient>
<radialGradient id="paint22_radial_30_3512" cx="0" cy="0" r="1" gradientUnits="userSpaceOnUse" gradientTransform="translate(5.20152 10.2741) scale(2.01651)">
<stop stop-color="#7F00FE"/>
<stop offset="1" stop-color="#450528" stop-opacity="0"/>
</radialGradient>
<linearGradient id="paint23_linear_30_3512" x1="5.18207" y1="10.0722" x2="5.18207" y2="12.1144" gradientUnits="userSpaceOnUse">
<stop offset="0.0873016" stop-color="#EB5757"/>
<stop offset="0.9709" stop-color="#3C53D7"/>
</linearGradient>
<radialGradient id="paint24_radial_30_3512" cx="0" cy="0" r="1" gradientUnits="userSpaceOnUse" gradientTransform="translate(7.77232 7.00612) scale(2.01651)">
<stop stop-color="#7F00FE"/>
<stop offset="1" stop-color="#450528" stop-opacity="0"/>
</radialGradient>
<linearGradient id="paint25_linear_30_3512" x1="7.70942" y1="6.80427" x2="7.70942" y2="8.84643" gradientUnits="userSpaceOnUse">
<stop offset="0.0873016" stop-color="#EB5757"/>
<stop offset="0.9709" stop-color="#3C53D7"/>
</linearGradient>
<radialGradient id="paint26_radial_30_3512" cx="0" cy="0" r="1" gradientUnits="userSpaceOnUse" gradientTransform="translate(33.1319 5.78606) scale(2.01651)">
<stop stop-color="#7F00FE"/>
<stop offset="1" stop-color="#450528" stop-opacity="0"/>
</radialGradient>
<linearGradient id="paint27_linear_30_3512" x1="33.1125" y1="5.58424" x2="33.1125" y2="7.6264" gradientUnits="userSpaceOnUse">
<stop offset="0.0873016" stop-color="#EB5757"/>
<stop offset="0.9709" stop-color="#3C53D7"/>
</linearGradient>
</defs>
</svg>
